<?xml version="1.0" encoding="UTF-8"?>
<svg id="Calque_1" data-name="Calque 1" xmlns="http://www.w3.org/2000/svg" xmlns:xlink="http://www.w3.org/1999/xlink" viewBox="0 0 48 48">
  <defs>
    <style>
      .cls-1 {
        fill: url(#Studymarket);
        stroke-width: 0px;
      }
    </style>
    <linearGradient id="Studymarket" x1="3" y1="24" x2="45" y2="24" gradientUnits="userSpaceOnUse">
      <stop offset="0" stop-color="#2ecc71"/>
      <stop offset="1" stop-color="#4a90e2"/>
    </linearGradient>
  </defs>
  <path class="cls-1" d="m19.99,24.96c-1.76-1.63-4.65-1.31-5.97.87h0c-.85,1.42-.61,3.25.43,4.53l3.13,4.03c.59.76.46,1.86-.31,2.46-.76.59-1.86.46-2.46-.31l-3.13-4.03c-1.96-2.42-2.25-5.85-.66-8.48.22-.36.47-.68.73-.99v-10.23c0-2.29-1.65-4.37-3.92-4.6-2.62-.26-4.83,1.79-4.83,4.35v18.46c0,3.73,1.49,7.32,4.15,9.95l3.14,3.11c.65.6,1.5.93,2.38.93h13.09c.97,0,1.75-.78,1.75-1.75v-6.68c0-2.9-1.2-5.66-3.31-7.65l-4.2-3.95h0Zm20.18-16.76c-2.28.23-3.92,2.31-3.92,4.6v10.23c.26.31.51.64.73.99,1.59,2.63,1.3,6.06-.66,8.48l-5.32,5.29v5.45c0,.62-.13,1.2-.32,1.75h4.66c.88,0,1.73-.33,2.38-.93l3.13-3.1c2.65-2.63,4.15-6.21,4.15-9.95V12.56c0-2.57-2.21-4.61-4.83-4.35h0Zm-6.19,17.63h0c-1.32-2.18-4.21-2.51-5.97-.87l-1.46,1.37.04.03c2,1.88,3.36,4.31,4,6.94l2.97-2.94c1.04-1.28,1.28-3.11.43-4.53h0Zm-1.23-18.02c0,3.79-4.93,8.49-7.39,10.46-.79.64-1.92.64-2.71,0-2.46-1.97-7.39-6.68-7.39-10.46-.12-2.54,1.84-4.69,4.38-4.81,2.53.13,4.49,2.28,4.38,4.81-.12-2.54,1.84-4.69,4.38-4.81,2.53.13,4.49,2.28,4.38,4.81Z"/>
</svg>