<?xml version="1.0" encoding="UTF-8"?>
<svg id="Calque_1" data-name="Calque 1" xmlns="http://www.w3.org/2000/svg" xmlns:xlink="http://www.w3.org/1999/xlink" viewBox="0 0 48 48">
  <defs>
    <style>
      .cls-1 {
        fill: url(#Studymarket-2);
      }

      .cls-1, .cls-2, .cls-3 {
        stroke-width: 0px;
      }

      .cls-2 {
        fill: url(#Studymarket);
      }

      .cls-3 {
        fill: url(#Studymarket-3);
      }
    </style>
    <linearGradient id="Studymarket" x1="23.02" y1="30.3" x2="37.41" y2="30.3" gradientUnits="userSpaceOnUse">
      <stop offset="0" stop-color="#2ecc71"/>
      <stop offset="1" stop-color="#4a90e2"/>
    </linearGradient>
    <linearGradient id="Studymarket-2" data-name="Studymarket" x1="10.63" y1="26.89" x2="32.19" y2="26.89" xlink:href="#Studymarket"/>
    <linearGradient id="Studymarket-3" data-name="Studymarket" x1="10.59" y1="15.24" x2="32.26" y2="15.24" xlink:href="#Studymarket"/>
  </defs>
  <path class="cls-2" d="m28.9,36.61c-1.6-1.12-3.19-2.26-4.8-3.37-.89-.62-1.46-1.4-.77-2.4.7-1.02,1.62-.7,2.52-.12,1.01.65,2.06,2,3.02,1.73.91-.26,1.48-1.78,2.18-2.76,1.02-1.45,2.01-2.91,3.01-4.37,1.23-1.79,2.22-1.78,3.37.05v.3c-.54,2.17-2.15,3.72-3.29,5.53-.8,1.28-1.75,2.47-2.56,3.76-.5.8-1.13,1.4-2.06,1.64h-.61Z"/>
  <path class="cls-1" d="m21.41,20.96c3.03,0,6.07.04,9.1-.02,1.18-.02,1.48.41,1.63,1.56.3,2.34-1.03,3.89-2.21,5.57-1.46,2.09-1.45,2.1-3.53.82-2.37-1.45-5.16.02-5.15,2.81,0,1.01-.31,1.14-1.17,1.12-2.22-.05-4.45,0-6.68-.02-1.93-.02-2.73-.86-2.74-2.8-.01-2.48.06-4.96-.03-7.43-.05-1.3.45-1.66,1.67-1.64,3.03.06,6.07.02,9.1.02Z"/>
  <path class="cls-3" d="m21.3,19.01c-2.84,0-5.67.03-8.51-.02-.72-.01-1.84.5-2.05-.65-.22-1.21-.36-2.56.9-3.46.08-.06.17-.13.27-.14,1.68-.13,2.88-.67,2.93-2.69.01-.53.89-.78,1.54-.6.7.2,1.21.71,1.15,1.43-.12,1.49.71,1.64,1.88,1.59,1.47-.06,2.94-.05,4.41,0,.92.03,1.47-.24,1.42-1.26-.05-1.09.45-1.81,1.57-1.77,1.03.04,1.51.76,1.45,1.76-.06,1.04.48,1.23,1.39,1.29,1.97.12,3.16,2.23,2.36,4-.31.69-.91.53-1.44.53-3.09.01-6.18,0-9.27,0Z"/>
</svg>