<?xml version="1.0" encoding="UTF-8"?>
<svg id="Calque_1" data-name="Calque 1" xmlns="http://www.w3.org/2000/svg" xmlns:xlink="http://www.w3.org/1999/xlink" viewBox="0 0 48 48">
  <defs>
    <style>
      .cls-1 {
        fill: url(#Studymarket);
        stroke-width: 0px;
      }
    </style>
    <linearGradient id="Studymarket" x1="12.93" y1="22.1" x2="31.72" y2="22.1" gradientUnits="userSpaceOnUse">
      <stop offset="0" stop-color="#2ecc71"/>
      <stop offset="1" stop-color="#4a90e2"/>
    </linearGradient>
  </defs>
  <path class="cls-1" d="m31.7,12.39c0-2.05-.84-2.85-2.87-2.86-4.35-.02-8.7-.02-13.05,0-2.03,0-2.83.82-2.84,2.85-.02,3.19,0,6.38,0,9.57,0,3.29,0,6.58,0,9.87,0,1.1.3,2.07,1.41,2.43,1.76.57,3.69.55,5.35.06.71-.21.14-2.13.25-3.27,0-.05,0-.1,0-.15.06-1.58.98-2.64,2.33-2.65,1.32-.01,2.26,1.04,2.38,2.61.09,1.2-.55,2.88.28,3.47.85.61,2.43.2,3.7.2,2.21,0,3.06-.81,3.07-3,.02-6.38.02-12.76,0-19.14Zm-14.13,11.23c-1.36.04-1.54-.63-1.56-1.77-.02-1.34.71-1.49,1.75-1.37,1.32-.24,1.42.57,1.45,1.61.04,1.24-.54,1.49-1.65,1.52Zm.1-6.27c-1.24,0-1.68-.4-1.66-1.66.02-1.22.5-1.65,1.66-1.47,1.24-.24,1.53.42,1.55,1.53.02,1.15-.36,1.59-1.55,1.6Zm4.67-3.12c1.4-.22,1.53.55,1.57,1.6.05,1.25-.54,1.47-1.63,1.52-1.39.06-1.52-.64-1.54-1.75-.02-1.29.58-1.59,1.6-1.37Zm-.01,9.34c-1.21.21-1.58-.35-1.59-1.53,0-1.17.33-1.63,1.56-1.6,1.14.02,1.65.32,1.62,1.56-.03,1.14-.33,1.77-1.59,1.57Zm4.73-9.41c1.25,0,1.63.5,1.43,1.64.24,1.25-.39,1.54-1.52,1.54-1.15,0-1.58-.35-1.59-1.56,0-1.27.44-1.63,1.67-1.62Zm-.26,9.45c-1.35.03-1.47-.71-1.35-1.74-.23-1.37.65-1.37,1.64-1.43,1.29-.08,1.41.58,1.47,1.64.07,1.41-.66,1.5-1.76,1.52Z"/>
</svg>