<?xml version="1.0" encoding="UTF-8"?>
<svg id="Calque_1" data-name="Calque 1" xmlns="http://www.w3.org/2000/svg" xmlns:xlink="http://www.w3.org/1999/xlink" viewBox="0 0 48 48">
  <defs>
    <style>
      .cls-1 {
        fill: #f9f7f0;
      }

      .cls-1, .cls-2, .cls-3, .cls-4, .cls-5 {
        stroke-width: 0px;
      }

      .cls-2 {
        fill: url(#Studymarket-2);
      }

      .cls-3 {
        fill: url(#Studymarket);
      }

      .cls-4 {
        fill: url(#Studymarket-3);
      }

      .cls-5 {
        fill: #fcfbf7;
      }
    </style>
    <linearGradient id="Studymarket" x1="12.67" y1="30.84" x2="34.13" y2="30.84" gradientUnits="userSpaceOnUse">
      <stop offset="0" stop-color="#2ecc71"/>
      <stop offset="1" stop-color="#4a90e2"/>
    </linearGradient>
    <linearGradient id="Studymarket-2" data-name="Studymarket" x1="14.42" y1="35.85" x2="32.38" y2="35.85" xlink:href="#Studymarket"/>
    <linearGradient id="Studymarket-3" data-name="Studymarket" x1="10.77" y1="18.98" x2="36.34" y2="18.98" xlink:href="#Studymarket"/>
  </defs>
  <path class="cls-1" d="m15.33,37.53c0-.1,0-.2,0-.3.52-.53,1.2-.48,1.85-.49,4.14-.02,8.28-.02,12.43,0,.65,0,1.33-.04,1.85.49,0,.1,0,.2,0,.3H15.33Z"/>
  <path class="cls-5" d="m10.77,24.76c-.1,0-.2,0-.3,0v-11.86c.1,0,.2,0,.3,0,.45.42.47.99.48,1.54.03,2.92.03,5.85,0,8.77,0,.55-.03,1.12-.48,1.54Z"/>
  <path class="cls-3" d="m23.4,32.36c-2.89,0-5.77-.02-8.66.01-1.1.01-2.04-.36-2.07-1.49-.04-1.2,1.03-1.54,2.04-1.54,5.87-.03,11.74-.02,17.61-.01,1.07,0,1.81.54,1.81,1.6,0,1.04-.79,1.43-1.78,1.43-2.99,0-5.97,0-8.96,0Z"/>
  <path class="cls-2" d="m31.45,37.23c-5.37,0-10.75,0-16.12,0-.92-.23-.99-.97-.86-1.67.15-.85.91-1.03,1.63-1.05,1.77-.04,3.54-.01,5.31-.02,3.13,0,6.27,0,9.4,0,.81,0,1.41.3,1.52,1.14.09.7.16,1.48-.88,1.6Z"/>
  <path class="cls-4" d="m36.29,14.13c-.04-2.22-1.24-3.35-3.42-3.35-6.33-.01-12.66,0-19-.01-1.55,0-2.58.68-3.11,2.13,0,3.95,0,7.91,0,11.86.38,1.73,1.22,2.42,3.09,2.43,6.33.01,12.66.01,19,0,2.19,0,3.4-1.11,3.44-3.33.06-3.24.06-6.48,0-9.72Zm-20.38,6.68c-.88-.03-1.42-.4-1.47-1.25-.06-.9.39-1.43,1.31-1.48.93-.06,1.31.6,1.33,1.32.02.72-.33,1.37-1.17,1.42Zm7.57.91c-1.82-.02-2.68-.95-2.67-2.9,0-1.53,1.29-2.92,2.66-2.87,1.47.05,2.81,1.5,2.81,3.03,0,1.49-1.29,2.75-2.8,2.74Zm7.57-.95c-.8-.07-1.25-.68-1.22-1.44.02-.65.26-1.3,1.15-1.26.91.04,1.35.52,1.4,1.42-.08.79-.48,1.35-1.32,1.28Z"/>
</svg>