<?xml version="1.0" encoding="UTF-8"?>
<svg id="Calque_1" data-name="Calque 1" xmlns="http://www.w3.org/2000/svg" xmlns:xlink="http://www.w3.org/1999/xlink" viewBox="0 0 48 48">
  <defs>
    <style>
      .cls-1 {
        fill: url(#Studymarket-2);
      }

      .cls-1, .cls-2 {
        stroke-width: 0px;
      }

      .cls-2 {
        fill: url(#Studymarket);
      }
    </style>
    <linearGradient id="Studymarket" x1="10.46" y1="23.64" x2="22.64" y2="23.64" gradientUnits="userSpaceOnUse">
      <stop offset="0" stop-color="#2ecc71"/>
      <stop offset="1" stop-color="#4a90e2"/>
    </linearGradient>
    <linearGradient id="Studymarket-2" data-name="Studymarket" x1="24.99" y1="23.61" x2="37.09" y2="23.61" xlink:href="#Studymarket"/>
  </defs>
  <path class="cls-2" d="m22.61,25.05c0,3.39-.01,6.78.01,10.17,0,.84-.12,1.19-.97.59-2.62-1.87-5.51-3.11-8.68-3.78-1.66-.35-2.5-1.59-2.5-3.34-.02-4.86-.03-9.72,0-14.58.01-2.17,1.34-3.21,3.46-2.89,2.51.38,4.92,1.09,7.28,2.01,1.02.4,1.46.93,1.42,2.1-.1,3.24-.03,6.48-.03,9.72Z"/>
  <path class="cls-1" d="m25.01,24.94c0-3.29.04-6.58-.02-9.87-.02-.9.29-1.35,1.09-1.7,2.57-1.1,5.24-1.84,8-2.2,1.64-.21,2.94.8,2.96,2.49.07,5.16.05,10.33,0,15.49-.01,1.57-1.03,2.58-2.47,2.89-3.11.66-5.96,1.88-8.54,3.72-.94.67-1.04.24-1.04-.64.03-3.39.01-6.78.01-10.18Z"/>
</svg>