<?xml version="1.0" encoding="UTF-8"?>
<svg id="Calque_1" data-name="Calque 1" xmlns="http://www.w3.org/2000/svg" xmlns:xlink="http://www.w3.org/1999/xlink" viewBox="0 0 48 48">
  <defs>
    <style>
      .cls-1 {
        fill: url(#Studymarket);
        stroke-width: 0px;
      }
    </style>
    <linearGradient id="Studymarket" x1="6" y1="24" x2="42" y2="24" gradientUnits="userSpaceOnUse">
      <stop offset="0" stop-color="#2ecc71"/>
      <stop offset="1" stop-color="#4a90e2"/>
    </linearGradient>
  </defs>
  <path class="cls-1" d="m42,25.05c0,.4,0,.78,0,1.17-1.94.41-9.05,1.78-17.99,1.78s-16.06-1.36-17.99-1.78c0-.39,0-.77,0-1.17,0-3.36.14-6.28.35-8.77,2.08.44,7.99,1.53,15.65,1.7v2.02c0,1.1.89,2,2,2s2-.9,2-2v-2.02c7.66-.17,13.57-1.26,15.65-1.7.21,2.49.35,5.41.35,8.77Zm-18-11.05c-8.81,0-15.74-1.4-17.23-1.72.58-4.36,1.27-6.62,1.32-6.78.19-.6.65-1.08,1.24-1.28.26-.09,6.42-2.22,14.66-2.22s14.4,2.13,14.66,2.22c.59.21,1.05.68,1.24,1.28.05.16.75,2.42,1.32,6.78-1.48.32-8.42,1.72-17.23,1.72Zm0-4c1.11,0,2-.9,2-2v-1.95c-.65-.03-1.32-.05-2-.05s-1.35.02-2,.05v1.95c0,1.1.89,2,2,2Zm2,24c0,1.1-.89,2-2,2s-2-.9-2-2v-2.02c-7.41-.16-13.29-1.14-15.94-1.66.21,9.13.93,13.77.96,13.99.17,1.09,1.2,1.83,2.29,1.66,1.09-.17,1.84-1.2,1.66-2.29,0-.02-.15-.99-.33-2.86,2.63.47,7.48,1.17,13.35,1.17s10.73-.69,13.35-1.17c-.18,1.87-.32,2.83-.33,2.86-.17,1.09.57,2.11,1.66,2.29,1.07.18,2.12-.57,2.29-1.66.04-.22.75-4.86.96-13.99-2.65.52-8.53,1.5-15.94,1.66v2.02h0Z"/>
</svg>