<?xml version="1.0" encoding="UTF-8"?>
<svg id="Calque_1" data-name="Calque 1" xmlns="http://www.w3.org/2000/svg" viewBox="0 0 48 48">
  <defs>
    <style>
      .cls-1 {
        fill: #4a90e2;
        stroke-width: 0px;
      }
    </style>
  </defs>
  <path class="cls-1" d="m30.28,31.07c-1.43,0-2.63-1.19-2.62-2.62.02-1.44,1.13-2.61,2.63-2.61,1.45,0,2.6,1.12,2.6,2.61,0,1.5-1.16,2.59-2.61,2.63Z"/>
  <path class="cls-1" d="m19.98,28.45c.03,1.3-1.02,2.6-2.61,2.62-1.44.01-2.61-1.18-2.61-2.62,0-1.44,1.18-2.62,2.62-2.61,1.43,0,2.6,1.18,2.6,2.62Z"/>
  <path class="cls-1" d="m21.13,34.91c-.14,0-.25,0-.36,0-.37.02-.75.07-1.11-.06-.02,0-.05-.01-.05,0-.16.19-.39.08-.58.1-.29.04-.6,0-.9,0-.29,0-.59-.1-.88.06-.03.02-.09.03-.12.02-.21-.11-.43-.07-.66-.06-.43.01-.85-.04-1.28-.04-.15,0-.3.05-.45.07-.05,0-.1.02-.14,0-.32-.1-.64-.13-.97-.08.15-.93,1.97-2.18,3.28-2.3,2.2-.2,3.72,1.17,4.22,2.31Z"/>
  <path class="cls-1" d="m34.01,34.87c-.28.03-.54.18-.84.07-.16-.06-.34-.05-.52-.07-.02,0-.04,0-.05,0-.37.14-.75.04-1.12.04-.18,0-.35.05-.55-.04-.12-.05-.3.04-.45.04-.41.01-.81.02-1.22.02-.05,0-.1-.03-.16-.05-.04-.01-.1-.05-.12-.04-.16.15-.35.06-.53.09-.05,0-.11.03-.16.03-.39-.02-.78-.05-1.17-.05-.15,0-.3.04-.45.06-.06.01-.12.03-.19.05.06-.93,1.92-2.27,3.29-2.41,2.09-.22,3.71,1.08,4.22,2.27Z"/>
  <path class="cls-1" d="m34.77,13.28c0-1.01-.72-1.84-1.7-2.06-.12-.03-.25-.05-.37-.08H14.97c-.06.02-.12.04-.18.04-1.07.11-1.93,1.06-1.93,2.13,0,2.83,0,5.66,0,8.49,0,1.18.99,2.17,2.17,2.17,5.87,0,11.73,0,17.6,0,1.14,0,2.11-.94,2.15-2.07.02-.65,0-1.29,0-1.94,0-2.23,0-4.45,0-6.68Zm-10.96-.34c1.16,0,2.08.92,2.08,2.07,0,1.15-.93,2.08-2.08,2.09-1.13,0-2.09-.95-2.08-2.09,0-1.13.94-2.07,2.08-2.07Zm3,9.22c-.85,0-1.7,0-2.54,0-.15,0-.31,0-.46,0-.98,0-1.95,0-2.93,0-.11,0-.22-.01-.32-.04-.27-.08-.41-.32-.37-.59.19-1.43,1.39-2.69,2.86-3,1.91-.4,3.8.75,4.32,2.63.02.08.03.17.06.25.14.38-.14.77-.62.76Z"/>
</svg>