<?xml version="1.0" encoding="UTF-8"?>
<svg id="Calque_1" data-name="Calque 1" xmlns="http://www.w3.org/2000/svg" viewBox="0 0 48 48">
  <defs>
    <style>
      .cls-1 {
        fill: #4a90e2;
        stroke-width: 0px;
      }
    </style>
  </defs>
  <path class="cls-1" d="m10.95,31.21c0-1.21,0-2.43,0-3.64,0-1.36.68-2.1,2.01-2.13,2.52-.04,5.05-.04,7.58,0,1.25.02,1.99.7,2,1.98.03,2.53.02,5.05,0,7.58,0,1.36-.76,2.03-2.09,2.04-2.47.01-4.95.01-7.42,0-1.44,0-2.1-.77-2.08-2.2.02-1.21,0-2.43,0-3.64Z"/>
  <path class="cls-1" d="m36.92,31.16c0,1.31,0,2.63,0,3.94,0,1.25-.67,1.9-1.85,1.93-2.57.05-5.15.03-7.73,0-1.28-.01-1.98-.75-2-1.99-.04-2.53-.04-5.05,0-7.58.02-1.33.8-2.02,2.13-2.03,2.47-.02,4.95-.03,7.42,0,1.33.02,2.05.69,2.02,2.09-.02,1.21,0,2.43,0,3.64Z"/>
  <path class="cls-1" d="m16.71,22.6c-1.21,0-2.42-.02-3.64,0-1.36.02-2.1-.63-2.12-1.99-.03-2.53-.02-5.05,0-7.58,0-1.28.68-1.99,1.96-2,2.52-.03,5.05-.02,7.58,0,1.36,0,2.05.72,2.05,2.07,0,2.48.03,4.95,0,7.43-.02,1.47-.67,2.05-2.18,2.07-1.21.02-2.42,0-3.64,0Z"/>
  <path class="cls-1" d="m30.99,22.89c-.74-.09-1.26-.45-1.47-1.25-.45-1.77-1.54-2.93-3.36-3.31-.75-.15-1.14-.6-1.2-1.35-.06-.86.42-1.33,1.18-1.52,1.85-.46,2.98-1.58,3.42-3.45.17-.72.71-1.09,1.46-1.07.75.02,1.24.41,1.41,1.14.43,1.89,1.65,2.94,3.48,3.39.73.18,1.15.67,1.15,1.41,0,.74-.42,1.26-1.14,1.42-1.88.41-3,1.55-3.49,3.39-.19.7-.66,1.12-1.44,1.2Z"/>
</svg>