<?xml version="1.0" encoding="UTF-8"?>
<svg id="Calque_1" data-name="Calque 1" xmlns="http://www.w3.org/2000/svg" viewBox="0 0 48 48">
  <defs>
    <style>
      .cls-1 {
        fill: #2ecc71;
        stroke-width: 0px;
      }
    </style>
  </defs>
  <path class="cls-1" d="m34.08,10.97c-.26-.14-.57-.2-.87-.2h-3.75s-4.09,0-4.09,0c-.06,0-.12.05-.12.12-.01,1.82-.02,3.64-.04,5.47s-.03,3.72-.06,5.58c0,.38.07.61.23.74s.41.17.75.17c1.68-.01,3.35-.02,5.03-.02s3.35,0,5.03.02c.36,0,.6-.05.75-.2s.2-.39.2-.74c-.02-.83-.05-1.66-.05-2.49s0-1.66.06-2.49c.1-1.44-.1-2.68-.66-3.71-.5-.92-1.29-1.67-2.41-2.24Zm-1.29,7.3c-.65.03-1.3.04-1.95.04s-1.3-.01-1.95-.04c-.34-.02-.61-.15-.81-.36s-.3-.51-.28-.85c.01-.34.13-.61.33-.81s.48-.31.84-.33c.32-.01.65-.01.97-.01s.65,0,.98,0c.3,0,.6,0,.9,0s.6,0,.9,0c.36.01.64.13.84.33s.3.48.31.81c.01.34-.08.63-.27.85s-.46.35-.81.36Z"/>
  <path class="cls-1" d="m22.85,10.77h-8.41c-1.04.17-1.86.55-2.46,1.15s-.98,1.43-1.15,2.47v8.46c1.8,0,3.59-.02,5.39-.02s3.59,0,5.39.02c.49,0,.81-.06,1-.25s.26-.51.25-1c-.03-1.81-.03-3.61-.02-5.42s.02-3.61.02-5.42Zm-3.7,7.51c-.47-.03-.74.06-.89.26s-.17.5-.15.89c.02.37-.09.63-.29.83s-.49.31-.83.38c-.36-.05-.65-.18-.85-.39s-.3-.51-.28-.9c.02-.36,0-.64-.15-.83s-.39-.27-.81-.25c-.39.02-.74-.06-.99-.25s-.4-.51-.39-.96c.01-.45.17-.75.43-.93s.61-.24,1-.21c.38.03.62-.04.75-.2s.17-.42.15-.76c-.03-.41.06-.77.26-1.01s.51-.38.94-.37c.38.01.67.16.85.4s.26.57.22.95c-.04.41.02.67.2.82s.45.19.83.17c.37-.02.69.05.92.22s.38.46.4.87c.02.45-.11.78-.35.99s-.58.3-.97.27Z"/>
  <path class="cls-1" d="m22.83,26.11c0-.58-.07-.94-.79-.93-3.74.05-7.47.07-11.21.1v7.98c0,.31.07.62.22.9.9,1.66,2.11,2.96,4.2,3.02,2.23.07,4.47.01,6.7.04.49,0,.89-.39.89-.88-.02-3.41-.02-6.82,0-10.23Zm-3.39,5.72c.62.53,1.08,1.19.4,1.93-.73.79-1.49.44-2.03-.27-.67-.88-1.16-.59-1.72.09-.56.67-1.24.89-1.93.19-.66-.68-.32-1.34.27-1.81.84-.67.84-1.22,0-1.87-.46-.35-.74-.84-.51-1.46.17-.46.49-.76,1.03-.75.61-.03,1.01.36,1.35.79.5.64.91.6,1.4-.01.54-.67,1.26-1.21,2.04-.51.88.79.33,1.57-.39,2.15-.75.61-.48,1.04.1,1.54Z"/>
  <path class="cls-1" d="m37.14,26.23c.03-.91-.35-1.09-1.15-1.07-1.6.05-3.2.01-4.8.01-1.65,0-3.3.04-4.95-.02-.85-.03-1.11.24-1.09,1.1.05,3.27.04,6.54,0,9.81,0,.8.15,1.18,1.06,1.16,2.05-.06,4.1.03,6.15-.04,2.83-.1,4.66-1.94,4.75-4.77.06-2.06-.03-4.13.03-6.19Zm-4.37,7.72c-.64.07-1.3.01-1.95.01,0,0,0,0,0,.01-.6,0-1.2.02-1.8,0-.77-.04-1.23-.48-1.22-1.24,0-.7.47-1.1,1.17-1.11,1.25-.02,2.5-.02,3.75,0,.71.01,1.13.45,1.16,1.13.02.7-.43,1.13-1.1,1.2Zm0-3.81c-.65.03-1.3,0-1.95,0,0,0,0,0,0,0-.6,0-1.2-.01-1.8,0-.73.02-1.16-.39-1.22-1.05-.07-.69.34-1.2,1.03-1.23,1.34-.06,2.69-.06,4.04,0,.62.02,1.02.51,1.01,1.11,0,.67-.4,1.13-1.12,1.16Z"/>
</svg>