<?xml version="1.0" encoding="UTF-8"?>
<svg id="Calque_1" data-name="Calque 1" xmlns="http://www.w3.org/2000/svg" viewBox="0 0 48 48">
  <defs>
    <style>
      .cls-1 {
        fill: #2ecc71;
        stroke-width: 0px;
      }
    </style>
  </defs>
  <path class="cls-1" d="m9.76,21.07c0-3.1-.02-6.21,0-9.31.01-2.17.95-3.11,3.08-3.12,2.44-.01,4.88.04,7.32-.02,1.14-.03,1.6.3,1.55,1.51-.09,2.02,0,4.04-.03,6.06-.01,1.06.44,1.54,1.52,1.52,2.02-.04,4.04,0,6.06-.02.98-.01,1.53.32,1.41,1.4-.04.33-.03.66,0,.99.16,2.07.31,4.07-2.54,4.52-.61.1-1.22.71-1.68,1.22-.84.93-1.59,1.74-3.02,1.9-1.41.16-2.06,1.85-1.56,3.22.58,1.59-.05,2.53-1.69,2.53-2.49,0-4.98.02-7.46,0-1.96-.02-2.93-.98-2.95-2.95-.02-3.15,0-6.3,0-9.45Z"/>
  <path class="cls-1" d="m31.73,38.26c-2.15-.07-3.9-.97-5.06-2.79-.51-.8-1.04-1.24-2.02-1.13-.62.07-1.3-.03-1.33-.87-.03-.84.58-.95,1.25-.94.52,0,.97-.21.98-.78,0-.58-.43-.78-.96-.78-.65,0-1.3-.09-1.27-.94.04-.94.78-.94,1.45-.88.85.07,1.34-.26,1.8-1,1.39-2.21,3.92-3.35,6.11-2.85.67.15,1.53.3,1.31,1.29-.2.9-.96.7-1.61.58-1.24-.23-2.31.13-3.28.88-.26.2-.6.43-.51.78.11.38.52.31.84.32.56,0,1.13,0,1.69.02.5.03.77.35.79.82.02.54-.25.9-.81.95-.33.03-.68-.05-.98.04-.88.26-2.54-.71-2.51.79.03,1.4,1.68.51,2.59.75.22.06.47.02.7,0,.62-.03,1.01.25,1.01.89,0,.64-.41.91-1,.93-.42.01-.84,0-1.27.02-.39.03-.94-.19-1.08.35-.1.41.36.62.65.83,1.13.83,2.38,1.09,3.71.63.65-.22,1.14-.15,1.37.5.23.67-.19,1.04-.79,1.27-.58.22-1.17.33-1.79.32Z"/>
  <path class="cls-1" d="m26.34,15.51c-.19,0-.37,0-.56,0q-1.87,0-1.87-1.85c0-.75-.04-1.5.03-2.24.08-.98.67-1.23,1.38-.56,1.09,1.02,2.11,2.11,3.14,3.19.25.26.53.56.35.98-.17.42-.56.45-.94.47-.51.02-1.03,0-1.54,0,0,0,0,0,0,0Z"/>
</svg>