<?xml version="1.0" encoding="UTF-8"?>
<svg id="Calque_1" data-name="Calque 1" xmlns="http://www.w3.org/2000/svg" viewBox="0 0 48 48">
  <defs>
    <style>
      .cls-1 {
        fill: #2ecc71;
        stroke-width: 0px;
      }
    </style>
  </defs>
  <path class="cls-1" d="m15.03,21.25c0,3.11.02,6.04-.02,8.97-.01.68.49.93.78,1.38.59.9.75,1.89.08,2.83-.66.92-1.53,1.32-2.64.86-1.09-.45-1.73-1.21-1.54-2.47.02-.15-.01-.36.07-.44,1.94-1.83.93-4.18,1.12-6.31.11-1.26,0-2.53.03-3.8.03-1.2.13-2.37-1.49-2.65-.42-.07-.64-.47-.62-.93.02-.47.28-.69.7-.88,3.89-1.69,7.77-3.4,11.65-5.11.68-.3,1.29-.22,2,.1,3.45,1.55,6.94,3.01,10.42,4.5.19.08.37.16.55.26.47.26,1.06.41,1.09,1.12.02.72-.52.94-1.02,1.16-2.81,1.25-5.75,2.28-8.42,3.78-2.82,1.58-5.27,1.15-7.89-.31-1.48-.82-3.12-1.34-4.84-2.06Z"/>
  <path class="cls-1" d="m31.75,27.05c0,2.82-1.59,4.61-5.1,5.25-3.14.57-6.22.24-8.92-1.73-1.22-.88-2.11-4.34-1.43-5.67.33-.63.77-.26,1.16-.09,1.34.59,2.71,1.12,4,1.81,2.43,1.29,4.58.37,6.76-.65.73-.34,1.51-.59,2.21-.99,1.06-.6,1.45-.33,1.33.86-.04.4,0,.81,0,1.21Z"/>
</svg>