<?xml version="1.0" encoding="UTF-8"?>
<svg id="Calque_1" data-name="Calque 1" xmlns="http://www.w3.org/2000/svg" viewBox="0 0 48 48">
  <defs>
    <style>
      .cls-1 {
        fill: #fff;
        stroke-width: 0px;
      }
    </style>
  </defs>
  <path class="cls-1" d="m37.21,27.42c-.36,1.5-1.39,2.26-2.85,2.2-1.21-.05-1.46.42-1.41,1.49.04,1.04-.32,2.09-1.1,2.74-2.69,2.27-5.59,4.08-9.37,3.31-1.35-.28-2.32-1.49-2.29-2.82.03-1.35,1.07-2.7,2.4-2.69,1.89.03,3.99-.8,5.58,1.01.31.36.65.11.94-.09.84-.57,1.07-1.39,1.06-2.37-.03-3.55,0-7.09-.02-10.64-.02-3.31-2.43-5.83-5.76-6.08-3.24-.24-6.07,2.03-6.47,5.31-.33,2.77-.08,5.56-.13,8.35-.04,1.97-.55,2.49-2.54,2.51-.51,0-1.01.02-1.52,0-1.93-.09-2.97-1.15-3.02-3.07-.02-1.11-.02-2.23,0-3.34.04-1.91,1.07-3.04,2.98-3.09.91-.02,1.24-.16,1.33-1.2.35-3.89,2.43-6.53,6.12-7.88.37-.13.83-.04,1.1-.42h3.65c4.45.83,6.88,3.54,7.38,8,.1.9.69.97,1.35,1.12,1.9.43,2.49,1.07,2.65,2.77-.05,1.63.11,3.26-.09,4.88Z"/>
  <path class="cls-1" d="m35.6,20.77c.09.05.19.05.28.02v5.17l-.11.08-.13-.04c-.01-1.74-.03-3.49-.04-5.23Z"/>
</svg>