<?xml version="1.0" encoding="UTF-8"?>
<svg id="Calque_1" data-name="Calque 1" xmlns="http://www.w3.org/2000/svg" viewBox="0 0 48 48">
  <defs>
    <style>
      .cls-1 {
        fill: #fff;
        stroke-width: 0px;
      }
    </style>
  </defs>
  <path class="cls-1" d="m35.11,19.94c-.24-1.89-.83-2.42-2.76-2.59-.96-.09-1.44-.4-1.63-1.38-.58-2.95-2.17-4.96-5.35-5.34h-2.74c-3.02.36-4.69,2.19-5.27,5.04-.25,1.23-.8,1.64-2.02,1.72-1.54.1-2.23.76-2.42,2.25-.6,4.81-1.36,9.61-1.39,14.48-.01,2.2,1.03,3.24,3.26,3.24,6.13.02,12.26.02,18.38,0,2.24,0,3.27-1.04,3.26-3.24-.02-4.77-.75-9.47-1.35-14.18Zm-7.75-2.46c-.1.56-.41.6-.84.6-.86,0-1.71,0-2.57,0-.5,0-1.01,0-1.51,0-1.83,0-1.98-.18-1.66-1.97.31-1.73,2.06-2.9,3.83-2.55,1.8.36,3.06,2.2,2.75,3.93Z"/>
</svg>