<?xml version="1.0" encoding="UTF-8"?>
<svg id="Calque_1" data-name="Calque 1" xmlns="http://www.w3.org/2000/svg" viewBox="0 0 48 48">
  <defs>
    <style>
      .cls-1 {
        fill: #fff;
        stroke-width: 0px;
      }
    </style>
  </defs>
  <path class="cls-1" d="m21.6,10.72l-.07.07s-.05,0-.08.02c.05-.03.1-.06.15-.09Z"/>
  <g>
    <path class="cls-1" d="m34.96,17.06c.07.5-.39.88-1.08,1.12s-1.64.36-2.52.33c-.88-.03-1.71-.2-2.2-.52s-.61-.79-.1-1.41c.17-.25.29-.47.35-.66s.06-.36.01-.51c-.05-.15-.15-.29-.3-.42s-.35-.26-.6-.38c-1.43-.72-2.97-1.04-4.5-1.02s-3.04.39-4.41,1.05c-1.38.66-2.61,1.63-3.58,2.85s-1.67,2.7-1.99,4.38c-.06.32-.13.64-.18.96s-.1.63-.13.95c-.02.32-.03.64,0,.97s.1.66.22.99c.1.49.02.89-.18,1.19s-.51.49-.87.57c-.35.08-.74.04-1.09-.11s-.66-.44-.85-.86c-.14-.85-.2-1.69-.2-2.51s.07-1.6.2-2.36c.31-1.92,1-3.66,1.97-5.17s2.23-2.78,3.69-3.75c.72-.48,1.49-.89,2.3-1.21s1.66-.57,2.53-.72c.01-.01.03-.02.04-.02s.03,0,.04,0c1.56-.27,3.21-.25,4.88.1s3.35,1.03,4.98,2.09c.15.11.29.17.43.18s.27-.01.4-.06c.13-.05.26-.13.39-.23s.26-.19.39-.29c.68-.45,1.14-.49,1.45-.26s.46.7.53,1.28c.07.58.06,1.26.03,1.89s-.07,1.2-.05,1.57Z"/>
    <path class="cls-1" d="m13.4,32.94q0-3.37,3.42-3.37c.46,0,.92-.04,1.36.04,1.23.23,1.6.92.87,1.92-.76,1.04-.36,1.47.59,1.94,5.93,2.95,13.22-.76,14.47-7.35.25-1.31.42-2.59.09-3.89-.25-.98.41-1.46,1.11-1.71.84-.3,1.36.34,1.58,1.05.47,1.53.42,3.15.13,4.66-1.34,6.84-6.08,10.71-12.85,11.14-2.42.15-4.91-.55-7-2.05-.55-.39-1.07-.76-1.72-.08-.41.43-.95.89-1.6.57-.68-.34-.4-1.07-.44-1.65-.03-.4,0-.81,0-1.22Z"/>
  </g>
</svg>