<?xml version="1.0" encoding="UTF-8"?>
<svg id="Calque_1" data-name="Calque 1" xmlns="http://www.w3.org/2000/svg" viewBox="0 0 48 48">
  <defs>
    <style>
      .cls-1 {
        fill: #fff;
        stroke-width: 0px;
      }
    </style>
  </defs>
  <path class="cls-1" d="m34.89,32.39c-.39.67-.94,1.09-1.73.81-.84-.29-1.02-.98-1.02-1.82.02-5.39-.06-10.78.05-16.17.04-1.62-.49-1.92-1.96-1.88-3.42.1-6.84.03-10.25.04-.78,0-1.53-.01-1.9-.88-.39-.9.24-1.4.75-1.94h13.92c1.59.48,2.39,1.53,2.26,3.22,0,5.66,0,11.32,0,16.98,0,.55.12,1.11-.12,1.65Z"/>
  <path class="cls-1" d="m29.77,26.32c0-2.52.01-5.05,0-7.57-.01-2.44-.96-3.42-3.36-3.43-3.12-.02-6.25-.02-9.37,0-2.3.01-3.32,1.02-3.33,3.32-.01,5.05-.01,10.1,0,15.15,0,2.2,1.03,3.27,3.22,3.3,3.22.04,6.45.03,9.67,0,2.1-.02,3.14-1.09,3.16-3.18.03-2.52,0-5.05,0-7.57Zm-7.9,4.31c-1.35.03-2.7.02-4.04,0-.65-.02-1.02-.48-1.03-1.08,0-.66.38-1.14,1.1-1.17.65-.03,1.3,0,1.95,0h0c.65,0,1.3-.02,1.95.01.71.04,1.11.45,1.09,1.17-.02.62-.36,1.07-1.01,1.09Zm3.46-4.67c-2.36.02-4.73,0-7.09,0-.82,0-1.43-.38-1.43-1.21,0-.82.57-1.2,1.42-1.18,1.21.04,2.41,0,3.62,0,1.16,0,2.31,0,3.47,0,.76,0,1.31.32,1.35,1.1.05.87-.54,1.27-1.35,1.27Zm.01-4.77c-1.21-.01-2.42,0-3.62,0-1.16,0-2.32-.02-3.47,0-.84.02-1.43-.33-1.44-1.16,0-.84.63-1.2,1.44-1.2,2.37,0,4.73-.01,7.1,0,.8,0,1.39.37,1.35,1.27-.04.81-.58,1.1-1.34,1.09Z"/>
</svg>