<?xml version="1.0" encoding="UTF-8"?>
<svg id="Calque_1" data-name="Calque 1" xmlns="http://www.w3.org/2000/svg" viewBox="0 0 48 48">
  <defs>
    <style>
      .cls-1 {
        fill: #fff;
        stroke-width: 0px;
      }
    </style>
  </defs>
  <path class="cls-1" d="m14.94,34.9c6.03-.07,12.07-.02,18.1-.03,2.66,0,4.2-1.5,4.23-4.18.03-3.47.02-6.94,0-10.41,0-.92-.07-1.86-1.31-2.01-1.11-.13-1.77.04-1.73,1.47.1,3.37.04,6.74.03,10.11,0,.73.2,1.63-.95,1.69-1.18.06-1.42-.81-1.44-1.7-.04-2.51-.02-5.03-.02-7.54,0-2.31,0-4.63,0-6.94,0-1.63-.56-2.22-2.14-2.22-5.53-.01-11.06.01-16.59-.02-1.07,0-1.82.4-2.42,1.23v18.43c.89,1.76,2.38,2.16,4.24,2.14Zm10.11-4.57c-2.61.02-5.21.02-7.82,0-.81,0-1.39-.4-1.35-1.26.03-.77.59-1.13,1.33-1.14,1.35-.01,2.71,0,4.06,0,1.25,0,2.51-.02,3.76,0,.82.02,1.58.33,1.55,1.26-.03.83-.76,1.13-1.52,1.14Zm-4.7-12.98c1.45-.01,2.91.02,4.36,0,1.22-.03,1.73.55,1.7,1.74-.03,1.05-.04,2.11,0,3.16.05,1.31-.58,1.81-1.83,1.76-1.15-.04-2.31,0-3.46,0-1.15,0-2.31-.05-3.46.01-1.24.07-1.73-.55-1.82-1.67,0-.05,0-.1,0-.15-.03-5.71-.26-4.79,4.51-4.83Z"/>
</svg>