<?xml version="1.0" encoding="UTF-8"?>
<svg id="Layer_1" data-name="Layer 1" xmlns="http://www.w3.org/2000/svg" viewBox="0 0 484 484">
  <defs>
    <style>
      .cls-1 {
        fill: #fff;
        stroke-width: 0px;
      }
    </style>
  </defs>
  <path class="cls-1" d="m61.29,147.28c1.64-6.35,4.3-12.04,9.63-16.27,8.97-7.13,22-7.3,30.98-.15,1.74,1.38,3.38,2.92,4.95,4.49,43.84,43.83,87.68,87.66,131.49,131.52.99.99,1.79,2.17,4.23,3.99.69-1.24,1.14-2.71,2.11-3.68,44.21-44.29,88.48-88.52,132.71-132.8,7.81-7.82,16.84-10.83,27.58-7.41,15.72,5.02,22.13,25.19,12.23,38.41-1.12,1.5-2.35,2.94-3.67,4.26-50.96,50.99-101.93,101.97-152.92,152.93-9.31,9.3-21.13,11.15-31.76,4.89-2.59-1.52-4.89-3.65-7.03-5.8-49.51-49.45-98.96-98.96-148.51-148.38-5.49-5.48-10.39-11.13-12.01-18.96v-7.05Z"/>
</svg>