<?xml version="1.0" encoding="UTF-8"?>
<svg id="Calque_1" data-name="Calque 1" xmlns="http://www.w3.org/2000/svg" viewBox="0 0 48 48">
  <defs>
    <style>
      .cls-1 {
        fill: #2c3e50;
        stroke-width: 0px;
      }
    </style>
  </defs>
  <path class="cls-1" d="m18.79,25.84c-1.77,0-3.54,0-5.31,0-1.3,0-1.96-.66-1.96-1.96,0-3.34-.01-6.67,0-10.01,0-1.31.91-2.28,2.28-2.3,3.34-.05,6.68-.06,10.01,0,1.26.02,2.04.65,2.02,2.1-.05,3.39-.03,6.77,0,10.16,0,1.4-.63,2.04-2.03,2.02-1.67-.03-3.34,0-5.01,0Z"/>
  <path class="cls-1" d="m24,36.47c-3.24,0-6.48.01-9.72,0-1.91,0-2.74-.86-2.77-2.79-.07-4.91.11-5.1,5.03-5.1,5.62,0,11.23,0,16.85,0,2.3,0,3.05.77,3.06,3.11.01,4.64-.13,4.79-4.72,4.79-2.58,0-5.16,0-7.74,0Z"/>
  <path class="cls-1" d="m32.69,11.55c4.03-.03,3.8-.26,3.78,3.75-.01,2.47-.17,2.63-2.67,2.63-1.16,0-2.32.02-3.48,0-1.63-.03-1.76-1.13-1.76-2.41,0-3.44.16-3.86,1.72-3.96.8-.05,1.61,0,2.42-.01Z"/>
  <path class="cls-1" d="m32.53,25.83c-3.74-.05-4.05.81-3.97-4.07.03-1.66.59-2.26,2.27-2.3,1.31-.03,2.63-.06,3.94.01,1.61.08,1.77.66,1.71,4.58-.02,1.3-.54,1.86-1.83,1.79-.71-.04-1.41,0-2.12,0Z"/>
</svg>