<?xml version="1.0" encoding="UTF-8"?>
<svg id="Calque_1" data-name="Calque 1" xmlns="http://www.w3.org/2000/svg" viewBox="0 0 48 48">
  <defs>
    <style>
      .cls-1 {
        fill: #2c3e50;
        stroke-width: 0px;
      }
    </style>
  </defs>
  <path class="cls-1" d="m35.26,14.15c-.01-1.53-.72-2.72-2.33-3.14-6,.01-12,.02-18,.04-1.56.52-2.2,1.66-2.21,3.24,0,6.53-.03,13.06,0,19.58.01,2.17,1.27,3.37,3.42,3.38,5.21.02,10.43.02,15.64,0,2.13-.01,3.47-1.25,3.48-3.35.04-6.58.04-13.16,0-19.74Zm-17.35,19.29c-.87-.05-1.43-.62-1.38-1.51.04-.79.61-1.33,1.4-1.33.86,0,1.38.54,1.47,1.39-.13.89-.59,1.49-1.49,1.44Zm-1.37-7.52c-.01-.86.52-1.44,1.42-1.45.82,0,1.35.54,1.41,1.31.06.86-.43,1.42-1.45,1.51-.8-.02-1.36-.51-1.37-1.38Zm7.42,7.53c-.83-.14-1.44-.55-1.39-1.48.05-.88.62-1.41,1.49-1.37.78.03,1.3.51,1.3,1.37,0,.92-.53,1.36-1.4,1.48Zm-1.39-7.57c-.02-.92.62-1.29,1.43-1.45.89.14,1.36.63,1.34,1.52-.02.86-.54,1.31-1.34,1.33-.88.02-1.43-.52-1.44-1.4Zm7.44,7.55c-.78.01-1.34-.46-1.4-1.29-.07-.91.48-1.47,1.31-1.54.86-.06,1.38.49,1.49,1.34-.02.95-.54,1.47-1.4,1.49Zm-.07-6.16c-.79-.03-1.31-.51-1.33-1.35-.02-.9.52-1.45,1.38-1.45.84,0,1.39.5,1.42,1.49-.07.84-.6,1.33-1.46,1.31Zm1.48-6.74c-2.53-.03-5.07-.01-7.6-.01-2.38,0-4.77-.05-7.15.02-.97.03-1.21-.27-1.16-1.19.08-1.52.05-3.04,0-4.56-.02-.72.11-1.12.98-1.12,4.97.03,9.93.02,14.9,0,.69,0,1.03.2,1.01.94-.03,1.67-.04,3.35,0,5.02.02.79-.34.9-1,.9Z"/>
  <path class="cls-1" d="m28.06,18.46c-.94-.18-2.47.43-2.42-1.24.05-1.59,1.53-1.13,2.51-1.14.99-.01,2.48-.38,2.44,1.21-.04,1.58-1.55,1.01-2.53,1.17Z"/>
</svg>