<?xml version="1.0" encoding="UTF-8"?>
<svg id="Calque_1" data-name="Calque 1" xmlns="http://www.w3.org/2000/svg" viewBox="0 0 48 48">
  <defs>
    <style>
      .cls-1 {
        fill: #2c3e50;
        stroke-width: 0px;
      }
    </style>
  </defs>
  <path class="cls-1" d="m12.58,14.41c.05,6.43.02,12.87.02,19.3,0,2.56,1.02,3.58,3.59,3.58,5.22,0,10.44,0,15.66,0,2.6,0,3.54-.96,3.55-3.59,0-4.36-.02-8.71.02-13.07.01-1.25-.38-2.22-1.3-3.09-2.37-2.25-4.68-4.56-7.02-6.85h-12.47c-1.51.78-2.07,2.01-2.06,3.71Zm17.88,17.3c-1.67.06-3.34.05-5.01.01-.86-.02-1.31-.62-1.3-1.4.01-.78.5-1.33,1.34-1.37.86-.04,1.72,0,2.58-.01.76,0,1.52-.03,2.28,0,.83.04,1.31.51,1.35,1.34.04.84-.42,1.39-1.24,1.42Zm-4.99-10.32c1.66-.07,3.32-.07,4.97.01.77.04,1.28.58,1.26,1.42-.02.84-.51,1.31-1.31,1.37-.85.06-1.71.01-2.56.01h0c-.75,0-1.51.03-2.26,0-.9-.04-1.42-.57-1.42-1.43,0-.8.54-1.35,1.32-1.39Zm-7.62,0c.9.58,1.18.14,1.59-.46.34-.5.66-1.03,1.08-1.45.51-.51,1.15-.6,1.78-.17.57.39.82,1.03.52,1.59-.86,1.59-1.94,3.04-3.13,4.4-.17.2-.53.24-.67.29-.96,0-3.11-2.11-3.14-2.92-.03-1.03,1.09-1.86,1.98-1.28Zm-1.67,8.01c.47-.59,1.23-.77,1.76-.33.84.69,1.08.09,1.45-.44.38-.53.76-1.07,1.2-1.56.42-.48,1-.47,1.54-.24.56.24.82.73.79,1.41.02.38-.24.7-.47,1.03-.7.99-1.4,1.98-2.12,2.95-1,1.35-1.7,1.39-2.94.19-.4-.39-.79-.78-1.15-1.2-.48-.57-.51-1.22-.05-1.8Z"/>
</svg>