<?xml version="1.0" encoding="UTF-8"?>
<svg id="Calque_1" data-name="Calque 1" xmlns="http://www.w3.org/2000/svg" viewBox="0 0 48 48">
  <defs>
    <style>
      .cls-1 {
        fill: #f6f8fa;
        stroke-width: 0px;
      }
    </style>
  </defs>
  <path class="cls-1" d="m28.55,34.61c1.93-.01,3.86-.03,5.8-.03.32,0,.71-.12.91.3h-6.68c0-.09-.01-.18-.03-.27Z"/>
  <g>
    <path class="cls-1" d="m29.73,37.05c-.62-.31-.58-.87-.58-1.44,0-4.04,0-8.09,0-12.13,0-.71.06-1.44.93-1.46,2.17-.07,4.34-.17,6.5.07.17.02.31.23.46.36.34,1.08.12,2.19.15,3.28.12,3.66-.19,7.33.16,10.99.19.94-.53.53-.91.61-1.68-.36-3.38-.06-5.08-.16-.55-.03-1.1.11-1.63-.11Z"/>
    <path class="cls-1" d="m37.35,36.71c-.65-.31-.28-.88-.28-1.31-.04-4.32-.03-8.64-.03-12.96.11,0,.21,0,.32-.01v14.29Z"/>
    <path class="cls-1" d="m20.34,37.32l.04-4.28c.78.24.65.93.7,1.49.17,2.02.16,1.99,2.21,2.05.87.02,1.83-.26,2.56.5,0,.09,0,.17-.04.24h-5.47Z"/>
    <path class="cls-1" d="m16.64,36.97c.02.12.04.23.06.35h-5.47c-.02-.09-.03-.18-.03-.26,1.8-.84,3.62-.72,5.44-.08Z"/>
    <path class="cls-1" d="m26.48,18.98c0-.88-.26-1.52-.9-2.12-1.97-1.81-3.93-3.64-5.81-5.54-.89-.9-1.55-.87-2.41-.03-2.02,1.99-4.06,3.94-6.13,5.87-.51.48-.61.99-.61,1.61,0,5.61,0,11.23,0,16.84,0,.56-.04,1.13.58,1.44,1.81-.03,3.63-.06,5.44-.08.01-1.11.05-2.21.03-3.32-.02-1.09.39-1.9,1.5-2.11,1.15-.21,1.94.3,2.22,1.49.46.96.18,1.97.2,2.96.01.78.26,1.06,1.05,1.04,1.4-.03,2.81.02,4.22.04.74-.31.61-.97.61-1.56,0-5.51-.01-11.02.02-16.54Zm-5.4,7.49c-1.72,0-3.44,0-5.16-.01-.74,0-1.12-.43-1.12-1.15,0-.73.42-1.12,1.14-1.13.91-.02,1.82,0,2.73,0h0c.81,0,1.62-.02,2.43,0,.8.01,1.25.48,1.22,1.24-.03.68-.51,1.07-1.23,1.06Zm-.02-4.93c-.86-.02-1.71,0-2.57,0-.81,0-1.61,0-2.42,0-.76,0-1.27-.33-1.28-1.16,0-.73.43-1.16,1.11-1.18,1.76-.05,3.52-.04,5.29,0,.69.02,1.16.48,1.14,1.17-.03.73-.46,1.19-1.27,1.17Z"/>
  </g>
</svg>