<?xml version="1.0" encoding="UTF-8"?>
<svg id="Calque_1" data-name="Calque 1" xmlns="http://www.w3.org/2000/svg" viewBox="0 0 48 48">
  <defs>
    <style>
      .cls-1 {
        fill: #f6f8fa;
        stroke-width: 0px;
      }
    </style>
  </defs>
  <path class="cls-1" d="m35.1,29.33c.67-1.25,1.51-1.05,2.43-.31,0,2.58-.03,5.17.02,7.75.01.65-.13.79-.78.78-4-.04-8.01-.02-12.01-.02-.09-.13-.1-.27-.02-.4,2.85-1.58,5.89-2.79,8.83-4.18.72-.34,1.47-.64,2.18-1.03.49-.27.97-.59.97-1.24,0-.71-.58-.86-1.12-1.03-.2-.06-.36-.17-.5-.32Z"/>
  <path class="cls-1" d="m24.76,37.23c0,.1,0,.2,0,.3h-1.52c0-.1,0-.2,0-.3.51-.44,1.02-.44,1.52,0Z"/>
  <path class="cls-1" d="m37.22,17.99c.1.82-.32,1.33-1.03,1.67-3.7,1.74-7.4,3.49-11.1,5.23-.97.46-1.9.1-2.77-.3-3.3-1.51-6.58-3.08-9.88-4.61-.87-.4-1.62-.87-1.65-1.94-.03-1.15.82-1.71,1.66-2.14,1.85-.93,3.74-1.77,5.62-2.64.82-.38,1.71-.66,2.47-1.15,2.24-1.45,4.4-1.52,6.8-.23,2.75,1.48,5.66,2.66,8.49,4,.87.41,1.53,1.01,1.39,2.11Z"/>
  <path class="cls-1" d="m24,31.14c-.76.16-1.43-.31-2.1-.61-3.36-1.51-6.7-3.07-10.04-4.61-.65-.3-1.09-.76-1.06-1.5.02-.71.57-1.01,1.13-1.29.57-.28.96.14,1.4.34,3.31,1.49,6.63,2.97,9.91,4.53.75.36,1.29.22,1.97-.1,3.34-1.55,6.71-3.05,10.04-4.6.85-.4,1.55-.29,1.88.55.3.79.18,1.64-.74,2.06-3.62,1.68-7.24,3.33-10.86,5-.48.22-.97.24-1.53.23Z"/>
  <path class="cls-1" d="m24.76,37.23c-.51,0-1.02,0-1.52,0-3.91-1.76-7.82-3.51-11.72-5.3-.7-.32-.89-.97-.68-1.67.22-.73.81-1.06,1.54-.91.64.13,1.26.37,1.85.64,2.98,1.37,5.95,2.76,8.92,4.16.47.22.89.4,1.43.15,3.5-1.67,7.16-3,10.52-4.97.87-.03,1.8-.12,2.08,1,.29,1.16-.54,1.63-1.41,2-3.69,1.59-7.21,3.57-11.01,4.9Z"/>
</svg>