<?xml version="1.0" encoding="UTF-8"?>
<svg id="Calque_1" data-name="Calque 1" xmlns="http://www.w3.org/2000/svg" viewBox="0 0 48 48">
  <defs>
    <style>
      .cls-1 {
        fill: #f6f8fa;
        stroke-width: 0px;
      }
    </style>
  </defs>
  <path class="cls-1" d="m36.72,27.67c-1.21-2.43-1.98-5.07-2.94-7.63-.17-.45-.58-.94.34-1.08.96-.15,1.44-.76,1.25-1.72-.2-.99-.97-1.17-1.86-1.15-1.77.02-3.55.01-5.32,0-.86,0-1.86.21-2.53-.15-.64-.35-.15-1.4-.27-2.14-.13-.8-.57-1.31-1.39-1.33-.73-.01-1.26.37-1.42,1.12-.07.34-.1.72-.04,1.06.21,1.25-.35,1.52-1.5,1.47-2.28-.09-4.56-.03-6.84-.02-.84,0-1.52.29-1.65,1.21-.12.8.23,1.46,1.05,1.59.97.15.8.58.54,1.24-.99,2.54-1.93,5.1-2.89,7.65-1.07,2.83-.12,5.48,2.49,6.97,2.19,1.24,4.95.98,6.8-.64,2.04-1.78,2.54-3.82,1.57-6.4-.95-2.5-1.85-5.02-2.87-7.5-.45-1.09-.11-1.28.9-1.23,1.26.06,2.53.02,3.8.02,1.37,0,2.74.03,4.1,0,.83-.02,1.08.15.72,1.03-1.06,2.62-1.96,5.3-3.04,7.91-.82,1.97-.35,3.67.81,5.26,1.7,2.33,5.07,2.98,7.64,1.58,2.3-1.25,3.86-4.53,2.56-7.12Zm-17.59.36c.27.7.02.87-.66.85-1.21-.04-2.42-.04-3.63,0-.72.02-.88-.19-.61-.87.8-2.01,1.56-4.03,2.44-6.33.9,2.33,1.67,4.34,2.46,6.35Zm14.66.84c-1.47,0-2.93-.03-4.39.01-.77.02-.82-.26-.57-.89.79-2.01,1.55-4.03,2.43-6.33.94,2.46,1.75,4.57,2.55,6.68.05.13,0,.29-.02.53Z"/>
</svg>