<?xml version="1.0" encoding="UTF-8"?>
<svg id="Calque_1" data-name="Calque 1" xmlns="http://www.w3.org/2000/svg" viewBox="0 0 48 48">
  <defs>
    <style>
      .cls-1 {
        fill: #2ecc71;
        stroke-width: 0px;
      }
    </style>
  </defs>
  <path class="cls-1" d="m23.31,10.53h.91c1.08.36,1.92,1.05,2.72,1.85,2.86,2.86,5.89,5.54,8.88,8.26,1.18,1.07,1.66,2.32,1.64,3.88-.05,2.98,0,5.97-.02,8.95-.02,3-.93,3.92-3.88,3.95-2.22.02-4.45-.06-6.67.03-1.25.05-1.6-.55-1.62-1.62-.02-1.11,0-2.23-.02-3.34,0-.46,0-.92-.18-1.35-.26-.63-.76-.92-1.45-.86-.7.06-.93.54-.98,1.14-.11,1.26-.02,2.53-.06,3.79-.06,1.95-.31,2.2-2.19,2.2-2.22,0-4.45.03-6.67,0-2.17-.04-2.52-.33-3.17-2.27v-12.47c.24-.72.68-1.27,1.25-1.8,3.27-3.05,6.51-6.13,9.83-9.12.53-.48,1.07-.91,1.69-1.24Z"/>
</svg>