<?xml version="1.0" encoding="UTF-8"?>
<svg id="Calque_1" data-name="Calque 1" xmlns="http://www.w3.org/2000/svg" viewBox="0 0 48 48">
  <defs>
    <style>
      .cls-1 {
        fill: #2ecc71;
        stroke-width: 0px;
      }
    </style>
  </defs>
  <path class="cls-1" d="m35.68,25.21c-.46,0-.93,0-1.39,0-.97.02-1.62-.44-1.6-1.4.02-.93.66-1.44,1.62-1.45.93,0,1.86,0,2.78,0,.99,0,1.77.36,1.76,1.46,0,1.12-.79,1.44-1.78,1.4-.46-.02-.93,0-1.39,0Z"/>
  <path class="cls-1" d="m25.23,12.05c-.19,1.13.52,2.86-1.37,2.9-1.98.04-1.47-1.71-1.5-2.91-.03-1.18-.38-2.84,1.37-2.88,2-.05,1.31,1.76,1.49,2.89Z"/>
  <path class="cls-1" d="m25.22,36.02c-.2,1.04.55,2.78-1.35,2.82-1.98.04-1.48-1.71-1.51-2.92-.03-1.24-.35-2.98,1.54-2.9,1.77.07,1.19,1.8,1.31,3Z"/>
  <path class="cls-1" d="m12.02,25.23c-1.18-.13-2.88.46-2.87-1.41,0-1.77,1.63-1.49,2.82-1.45,1.2.04,2.96-.48,2.9,1.51-.06,1.87-1.78,1.17-2.85,1.35Z"/>
  <path class="cls-1" d="m28.62,17.02c-2.71.7-5.4,1.46-8.09,2.22-.61.17-1.22.37-1.43,1.13-.81,2.98-1.7,5.94-2.45,8.94-.28,1.1.32,1.78,1.67,1.88,3.04-.87,6.23-1.77,9.41-2.72.41-.12.53-.58.64-.99.78-2.81,1.63-5.6,2.36-8.42.43-1.68-.42-2.48-2.1-2.04Zm-4.82,8.79c-1.17.05-1.86-.65-1.86-1.82,0-1.09.68-1.75,1.76-1.76,1.08,0,1.69.65,1.83,1.75-.11,1.03-.65,1.78-1.73,1.82Z"/>
</svg>