<?xml version="1.0" encoding="UTF-8"?>
<svg id="Calque_1" data-name="Calque 1" xmlns="http://www.w3.org/2000/svg" viewBox="0 0 48 48">
  <defs>
    <style>
      .cls-1 {
        fill: #f6f8fa;
        stroke-width: 0px;
      }
    </style>
  </defs>
  <path class="cls-1" d="m37.53,22.63c-.92,2.42-3.12,3.77-4.76,5.58-2.25,2.46-4.71,4.73-7.02,7.14-.82.85-1.67,1.34-2.89,1.34-1.36,0-2.72.21-4.08.34-.98.09-1.42-.33-1.33-1.31.15-1.66.29-3.32.42-4.99.05-.66.45-1.1.88-1.53,3.66-3.63,7.3-7.29,10.97-10.91,1.65-1.63,3.08-1.61,4.71.06,1.18,1.2,2.65,2.2,3.09,3.98v.3Z"/>
  <path class="cls-1" d="m18.37,10.47c.47.46.84.93,1.03,1.62.53,1.89,1.76,3.15,3.7,3.63.9.22,1.66.59,1.62,1.68-.04.98-.71,1.36-1.57,1.57-2,.49-3.27,1.77-3.79,3.73-.24.9-.64,1.48-1.61,1.48-.98,0-1.38-.6-1.62-1.49-.52-1.97-1.78-3.25-3.78-3.74-.86-.21-1.53-.6-1.56-1.58-.03-1,.63-1.4,1.5-1.61,2.05-.5,3.35-1.83,3.87-3.85.17-.64.54-1.06,1-1.45h1.22Z"/>
</svg>