<?xml version="1.0" encoding="UTF-8"?>
<svg id="Calque_1" data-name="Calque 1" xmlns="http://www.w3.org/2000/svg" viewBox="0 0 48 48">
  <defs>
    <style>
      .cls-1 {
        fill: #f6f8fa;
        stroke-width: 0px;
      }
    </style>
  </defs>
  <path class="cls-1" d="m33.87,31.02c.4-.03.67-.23.84-.52s.24-.68.24-1.07c0-2.43,0-4.86,0-7.29,0-2.43,0-4.86-.03-7.29-.01-1.07-.37-1.91-.94-2.57-.27-.31-.58-.58-.94-.82-.72-.5-1.59-.74-2.46-.74h-6.65s-6.51,0-6.51,0c-1.56,0-3,.86-3.73,2.24-.49.93-.68,2.06-.64,3.36.07,2.63.07,5.27.07,7.9,0,2.63-.03,5.27-.02,7.9,0,1.76.44,3.06,1.3,3.92.87.86,2.17,1.29,3.92,1.29,2.36,0,4.71,0,7.07,0,2.36,0,4.71,0,7.07,0,.18,0,.35,0,.53,0,.18,0,.35,0,.53-.02.37-.03.69-.12.93-.31s.4-.46.46-.84c.06-.41,0-.78-.18-1.06-.18-.28-.47-.48-.86-.54-.78-.13-.95-.49-.94-.9,0-.41.19-.88.11-1.25-.07-.29-.13-.61-.03-.87s.33-.45.88-.49Zm-12.6-16.29c.73-.66,1.72-1.06,2.81-1.04,1.1.01,2.08.46,2.79,1.17.71.71,1.15,1.7,1.17,2.8,0,.62-.11,1.18-.34,1.69s-.57.97-1.03,1.38c-.31.28-.68.48-1.03.72-.34.24-.67.51-.88.93-.1.2-.3.29-.53.31s-.49-.03-.72-.12c-.33-.13-.5-.33-.58-.57s-.08-.53-.08-.81c0-.33-.02-.67.05-.97s.24-.56.64-.71c.16-.07.34-.1.51-.14.17-.04.35-.07.51-.13.41-.15.71-.38.89-.68.18-.3.23-.67.17-1.1-.06-.4-.2-.72-.44-.94-.23-.23-.56-.37-.96-.41-.43-.04-.8.02-1.1.19s-.53.47-.67.9c-.03.1-.06.19-.08.29-.02.1-.04.2-.06.3-.06.39-.22.69-.45.88-.23.19-.54.26-.92.19-.39-.07-.63-.26-.78-.52-.14-.26-.19-.6-.16-.98.06-1.03.54-1.96,1.27-2.61Zm4.36,11.21c0,1.03-.65,1.51-1.55,1.61-1.11-.02-1.69-.64-1.72-1.59-.03-.96.52-1.63,1.55-1.66,1.09-.04,1.71.56,1.72,1.64Zm4.35,8.36c-.17.13-.43.15-.77.15-.96-.02-1.92-.02-2.88-.02-.96,0-1.92,0-2.88,0-.91,0-1.82,0-2.73,0s-1.82,0-2.73.02c-.6.01-1.11-.11-1.47-.38-.36-.27-.57-.7-.57-1.32,0-.58.21-.99.56-1.26.35-.27.84-.39,1.39-.39,1.9,0,3.79,0,5.68,0,1.9,0,3.79,0,5.68-.02.38,0,.62.06.76.22.14.16.18.4.14.75-.02.25-.04.5-.04.76,0,.25.01.51.04.76.05.39-.03.62-.2.75Z"/>
</svg>