<?xml version="1.0" encoding="UTF-8"?>
<svg id="Calque_1" data-name="Calque 1" xmlns="http://www.w3.org/2000/svg" viewBox="0 0 48 48">
  <defs>
    <style>
      .cls-1 {
        fill: #f6f8fa;
        stroke-width: 0px;
      }
    </style>
  </defs>
  <path class="cls-1" d="m37.17,20.15c-.07.18-.15.35-.24.51s-.21.29-.33.41-.27.2-.43.25-.34.07-.53.04c-.53-.08-1.03-.07-1.49.02s-.9.23-1.32.43-.82.44-1.21.69-.78.54-1.17.81c-.1.07-.21.14-.31.21s-.21.14-.31.21-.21.14-.32.21-.21.14-.32.21c-.11.07-.23.16-.34.24s-.23.15-.35.21-.25.09-.38.09-.27-.03-.43-.11c-.15-.08-.26-.17-.35-.28s-.15-.23-.19-.35-.06-.26-.06-.4.01-.28.04-.42c.07-.38.08-.69.03-.92s-.15-.41-.31-.54-.37-.2-.62-.25-.56-.05-.91-.05c-1.08.02-1.88.04-2.49-.02s-1.01-.2-1.28-.47-.4-.69-.47-1.31-.07-1.44-.07-2.53c0-.31,0-.63,0-.94s0-.63.01-.94,0-.63,0-.94-.01-.63-.03-.94c-.02-.28,0-.54.04-.78s.11-.47.22-.68c0-.01.01-.02.02-.04s.01-.02.02-.03c.17-.32.43-.57.73-.74s.66-.26,1.02-.26h13.2c.21.09.39.2.53.33s.26.27.35.43.15.33.17.53.03.4,0,.62c-.02.63-.02,1.25-.01,1.88s.02,1.25.03,1.88,0,1.25-.01,1.88-.06,1.25-.13,1.88Z"/>
  <path class="cls-1" d="m37.17,25.26c0,.71,0,1.43,0,2.14s0,1.43,0,2.14c-.25.76-.66,1.28-1.2,1.6s-1.2.46-1.95.46c-1.01,0-2.03,0-3.04,0s-2.03,0-3.04-.02c-.38,0-.63.04-.75.18s-.11.38.01.77c.19.57.35,1.11.67,1.48s.8.56,1.62.42c.45-.08.84.02,1.12.26s.46.63.47,1.14c0,.52-.16.88-.45,1.1s-.69.32-1.14.32c-1.85.01-3.7.02-5.54.01s-3.7,0-5.54-.01c-.44,0-.81-.12-1.07-.35s-.42-.57-.43-1.02c-.01-.45.13-.84.38-1.11s.61-.4,1.02-.33c1.19.21,1.74-.14,2.06-.73s.43-1.4.71-2.12c-1.2,0-2.36,0-3.51,0s-2.29,0-3.42,0c-1.18,0-2.04-.28-2.6-.84s-.84-1.41-.84-2.58c0-2.05,0-4.09,0-6.14s0-4.09,0-6.14c0-1.09.27-1.91.81-2.45s1.34-.83,2.43-.86c.38,0,.76-.02,1.14-.02s.76,0,1.14.02c.62.03,1.13.19,1.49.51s.57.79.56,1.43c0,.59-.22,1.09-.56,1.42s-.84.49-1.4.43c-.92-.11-1.39.07-1.62.45s-.23.96-.21,1.65c.04,1.36.06,2.73.06,4.09s-.02,2.73-.05,4.09c0,.42.05.7.21.88s.44.24.88.24c2.81-.02,5.62-.03,8.43-.04s5.62.01,8.43.05c.65,0,.92-.16,1.03-.43s.04-.63.03-.99c-.02-.53.05-1.02.26-1.41s.56-.69,1.1-.85c.53-.16,1-.13,1.39.07s.71.56.93,1.08Z"/>
</svg>