<?xml version="1.0" encoding="UTF-8"?>
<svg id="Calque_1" data-name="Calque 1" xmlns="http://www.w3.org/2000/svg" viewBox="0 0 48 48">
  <defs>
    <style>
      .cls-1 {
        fill: #4a90e2;
        stroke-width: 0px;
      }
    </style>
  </defs>
  <path class="cls-1" d="m35.65,34.52c-.11-2.61-.03-5.24-.02-7.78-1.87,1.02-1.95,2.78-1.84,4.64.07,1.16.03,2.32,0,3.48-.03,1.2-.58,1.92-1.83,1.94-5.09.06-10.19.06-15.28,0-1.04-.01-1.58-.56-1.59-1.6-.05-3.13-.04-6.25,0-9.38.01-1.23.7-1.67,1.84-1.68,2.93-.02,5.85,0,8.78-.02.53,0,1.1.17,1.6-.22-.24-.56-.79-.6-1.24-.78-1.8-.7-2.77-2.05-2.75-3.94.01-1.21-.51-1.47-1.55-1.43-1.21.04-2.42.07-3.63,0-2.04-.13-3.79.37-5.15,1.97-.07.05-.14.06-.21.07-.02,5.67-.03,11.33-.05,17,.27,1.36,1.21,2.03,2.46,2.36,6.04,0,12.09.01,18.13.02.01-.08.05-.16.12-.23,1.77-.95,2.32-2.46,2.23-4.42Z"/>
  <path class="cls-1" d="m36.04,36.48c.14-3.68.05-7.38.05-11.51-.6,1.27-1.08,2.13-2,2.47-.76.28-.76.79-.76,1.42.02,2.07-.03,4.13.02,6.2.02.92-.17,1.36-1.23,1.35-5.19-.05-10.38-.04-15.57,0-.93,0-1.22-.3-1.21-1.21.04-3.02.08-6.05-.02-9.07-.04-1.24.26-1.61,1.55-1.58,3.85.1,7.71.03,11.67.03-.31-1.18-1.12-1.5-2-1.77-2.23-.67-3.2-2.17-2.74-4.46.13-.66.16-.91-.6-.9-2.52.03-5.04-.04-7.56.05-1.4.05-2.49.73-2.88,2.21,0,.02,0,.05,0,.07.07,0,.14-.03.21-.07,1.36-1.6,3.12-2.1,5.15-1.97,1.21.08,2.42.05,3.63,0,1.03-.04,1.56.22,1.55,1.43-.02,1.9.95,3.24,2.75,3.94.45.18,1,.22,1.24.78-.5.39-1.07.21-1.6.22-2.93.03-5.85,0-8.78.02-1.14,0-1.83.45-1.84,1.68-.03,3.13-.04,6.26,0,9.38.02,1.04.55,1.59,1.59,1.6,5.09.05,10.19.06,15.28,0,1.25-.02,1.8-.74,1.83-1.94.03-1.16.07-2.32,0-3.48-.11-1.86-.03-3.62,1.84-4.64,0,2.54-.08,5.16.02,7.78.08,1.95-.46,3.46-2.23,4.42-.07.07-.11.15-.12.23.03,0,.05,0,.08,0,1.5-.3,2.6-1.22,2.66-2.69Z"/>
  <path class="cls-1" d="m38.88,19.18c-.02.93-.45,1.41-1.24,1.59-2,.46-3.27,1.65-3.76,3.67-.2.82-.74,1.34-1.62,1.3-.8-.04-1.23-.55-1.42-1.33-.49-1.93-1.71-3.14-3.64-3.61-.82-.2-1.38-.63-1.38-1.53,0-.92.62-1.3,1.41-1.51,1.93-.49,3.13-1.73,3.61-3.65.2-.8.68-1.25,1.45-1.29.89-.05,1.39.53,1.59,1.33.49,1.94,1.69,3.14,3.63,3.6.82.19,1.36.63,1.36,1.43Z"/>
  <path class="cls-1" d="m18.42,34.29c-.45,0-.8-.23-.99-.59-.26-.49-.16-.98.21-1.4.6-.67,1.62-1.28,1.7-2.01.09-.77-1.1-1.29-1.68-1.97-.45-.54-.54-1.09-.05-1.62.49-.53,1.06-.47,1.63-.1.04.03.08.07.12.1,3.64,2.75,3.6,4.66-.12,7.3-.26.19-.52.3-.83.29Z"/>
  <path class="cls-1" d="m25.46,34.3c-.84-.19-2.44.56-2.41-1.21.03-1.58,1.52-1.05,2.49-1.14.4-.04.81,0,1.21,0,.83.01,1.41.4,1.39,1.24-.03.75-.57,1.13-1.34,1.12-.4,0-.81,0-1.34,0Z"/>
</svg>