<?xml version="1.0" encoding="UTF-8"?>
<svg id="Calque_1" data-name="Calque 1" xmlns="http://www.w3.org/2000/svg" viewBox="0 0 48 48">
  <defs>
    <style>
      .cls-1 {
        fill: #4a90e2;
        stroke-width: 0px;
      }
    </style>
  </defs>
  <path class="cls-1" d="m33.8,19.89c-.93.51-1.2,1.45-1.54,2.35-.29.76-.56,1.61-1.59,1.57-.93-.04-1.39-.66-1.62-1.54-.48-1.83-1.69-2.93-3.48-3.45-.75-.22-1.46-.47-1.5-1.44-.04-1.06.7-1.36,1.51-1.59,1.8-.51,2.99-1.64,3.47-3.46.18-.67.55-1.16,1.09-1.56h1.22c.59.32,1.11.68,1.28,1.39.39,1.68,1.52,2.65,3.11,3.17,1.16.38,1.72,1.16,1.53,2.41-.08.54-.34,1.05-.85,1.14-.95.17-1.68.89-2.63,1.01Z"/>
  <path class="cls-1" d="m34.41,23.57c0,3.58.05,7.15-.02,10.73-.03,1.79-1.34,2.93-3.17,2.93-5.67,0-11.34,0-17.01,0-2.08,0-3.47-1.27-3.49-3.35-.05-5.06-.04-10.12,0-15.19.01-1.71,1.68-3.23,3.72-3.32,2.27-.1,4.56-.01,6.83-.03.85,0,.96.28.8,1.11-.45,2.27.55,3.71,2.85,4.4.24.07.49.16.7.29.47.29,1.14.63,1.02,1.18-.13.61-.87.3-1.33.31-3.39.03-6.78.05-10.18,0-1.03-.02-1.43.26-1.41,1.36.06,3.04.07,6.08,0,9.11-.03,1.18.4,1.44,1.49,1.43,4.96-.05,9.92-.05,14.88,0,1.17.01,1.65-.35,1.61-1.57-.07-1.87,0-3.75-.02-5.62,0-.82-.05-1.52.96-1.94.72-.29,1.21-1.06,1.78-1.81Z"/>
</svg>