<?xml version="1.0" encoding="UTF-8"?>
<svg id="Calque_1" data-name="Calque 1" xmlns="http://www.w3.org/2000/svg" viewBox="0 0 48 48">
  <defs>
    <style>
      .cls-1 {
        fill: #4a90e2;
        stroke-width: 0px;
      }
    </style>
  </defs>
  <path class="cls-1" d="m31.75,10.47h-1.22c-1.62.3-1.83,1.5-1.83,2.86,0,5.42.03,10.83-.02,16.25,0,1.04.34,2.7-1.1,2.71-1.44.01-.96-1.64-.97-2.61-.06-4.35,0-8.71-.03-13.06-.02-3.75-1.28-5.31-4.86-6.16h-2.43c-3.17,1.23-4.32,3.62-4.19,6.92.12,3.34-.02,6.69.05,10.03.02,1.14-.22,1.73-1.48,1.52-.34-.06-.71-.01-1.06,0-.79.01-1.35.43-1.67,1.11-.34.71-.2,1.44.31,1.98,1.47,1.54,2.98,3.04,4.5,4.52.6.58,1.37.67,2.12.32.89-.42,1.11-1.21,1.1-2.15-.02-5.87,0-11.75,0-17.62,0-.41,0-.81.01-1.22.04-.97.57-1.52,1.51-1.56,1.02-.04,1.59.55,1.67,1.57.03.4.01.81.01,1.21,0,4.81-.02,9.62.01,14.43.01,2.4,1.11,4.18,3.37,5.1,2.06.84,3.98.5,5.65-.97,1.24-1.1,1.79-2.53,1.79-4.18,0-3.75.08-7.5-.04-11.24-.05-1.42.42-1.78,1.69-1.58,1.47.23,2.4-.45,2.89-1.8v-.3c-1.54-2.4-3.74-4.16-5.78-6.08Z"/>
</svg>