<?xml version="1.0" encoding="UTF-8"?>
<svg id="Calque_1" data-name="Calque 1" xmlns="http://www.w3.org/2000/svg" viewBox="0 0 48 48">
  <defs>
    <style>
      .cls-1 {
        fill: #2ecc71;
        stroke-width: 0px;
      }
    </style>
  </defs>
  <path class="cls-1" d="m35.4,26.57c-.35,1.03-.98,1.78-1.77,2.19s-1.74.48-2.73.14c-.28-.1-.49-.25-.63-.45s-.2-.46-.18-.76c.02-.34.14-.63.32-.83s.44-.3.76-.26c.91.13,1.38-.07,1.62-.46s.25-.99.22-1.66c-.03-.86-.05-1.71-.05-2.57s.02-1.72.05-2.57c.01-.44-.04-.75-.21-.95s-.48-.29-.96-.28c-1.88.02-3.76.04-5.64.03s-3.76-.01-5.64-.03c-.44,0-.75.07-.93.25s-.24.47-.19.9c.02.15.02.31.02.46s-.01.31-.02.46c-.03.37-.15.64-.35.83s-.49.28-.86.28c-.34,0-.62-.1-.82-.27s-.32-.43-.32-.76c-.02-.86-.04-1.72-.05-2.57s.01-1.72.07-2.57c.04-.62.31-1.11.69-1.52.1-.11.21-.21.33-.31.58-.48,1.33-.71,2.09-.71h13.05c.93.25,1.49.5,1.82.93s.43,1.05.43,2.03c0,1.65,0,3.3,0,4.94s0,3.3,0,4.94c0,.19.03.39.02.59s-.03.39-.14.57Z"/>
  <path class="cls-1" d="m28.21,26.4c-.03-1.9-1.19-3-3.09-3.01-3.23,0-6.46,0-9.69,0-1.69,0-2.33.48-2.89,2.11,0,2.56,0,5.11,0,7.67.35,1.62,1.26,2.37,2.96,2.37,3.23.01,6.46.01,9.69,0,1.81,0,2.98-1.12,3.02-2.94.05-2.07.04-4.14,0-6.2Zm-5.93,6.77c-2.03,0-4.07-.03-6.1.01-.9.02-1.24-.31-1.26-1.23-.09-3.27-.11-3.27,3.21-3.27.71,0,1.41,0,2.12,0,1.46,0,2.92.02,4.37,0,.67-.01.91.23.95.91.23,3.58.25,3.58-3.3,3.58Z"/>
</svg>