<?xml version="1.0" encoding="UTF-8"?>
<svg id="Calque_1" data-name="Calque 1" xmlns="http://www.w3.org/2000/svg" viewBox="0 0 48 48">
  <defs>
    <style>
      .cls-1 {
        fill: #2ecc71;
        stroke-width: 0px;
      }
    </style>
  </defs>
  <path class="cls-1" d="m11.5,24.46c.82-1.33,1.89-2.11,3.44-1.85.92.16,1.41-.37,1.64-1.27.07-.29.19-.58.27-.87.83-3.21,1.29-3.92,4.51-3.67.93.07,1.28-.31,1.21-1.31-.04-.65-.01-1.33.12-1.97.13-.64.51-1.08,1.22-1.02.72.07,1.11.49,1.2,1.25,0,.05,0,.1,0,.15.09.9-.36,2,.25,2.65.55.61,1.55.08,2.32.26.98.23,1.67.89,2.01,1.93.11.33.18.68.27,1.02q.69,2.83,3.36,2.85c1.9.01,2.69.62,3.02,2.66.26,1.6.23,3.25-.19,4.85-.2.74-.68,1.38-1.28,1.51-.66.15-.56-.77-.79-1.22-.94-1.82-2.36-2.72-4.3-2.58-1.85.13-3.14,1.28-3.72,3.04-.42,1.28-1.12,1.3-2.05,1.25-.93-.05-1.85.31-2.25-1.27-.51-2.02-2.04-2.94-3.98-3.03-1.94-.08-3.23,1.02-4.09,2.73-.73,1.47-.83,1.53-1.82.2-.12-.16-.24-.31-.36-.46,0-1.94,0-3.89,0-5.83Z"/>
  <path class="cls-1" d="m32.75,32.49c-.02,1.66-1.33,3.07-2.77,3-1.29-.06-2.61-1.54-2.6-2.91,0-1.44,1.43-2.94,2.76-2.9,1.47.05,2.64,1.3,2.62,2.81Z"/>
  <path class="cls-1" d="m20.29,32.63c-.02,1.64-1.21,2.9-2.72,2.87-1.28-.02-2.65-1.67-2.58-3.12.06-1.32,1.54-2.74,2.82-2.7,1.38.04,2.49,1.37,2.48,2.95Z"/>
</svg>