<?xml version="1.0" encoding="UTF-8"?>
<svg id="Calque_1" data-name="Calque 1" xmlns="http://www.w3.org/2000/svg" xmlns:xlink="http://www.w3.org/1999/xlink" viewBox="0 0 48 48">
  <defs>
    <style>
      .cls-1 {
        fill: url(#Dégradé_sans_nom_2-4);
      }

      .cls-1, .cls-2, .cls-3, .cls-4, .cls-5, .cls-6, .cls-7 {
        stroke-width: 0px;
      }

      .cls-2 {
        fill: url(#Dégradé_sans_nom_2-5);
      }

      .cls-3 {
        fill: url(#Dégradé_sans_nom_2-3);
      }

      .cls-4 {
        fill: url(#Dégradé_sans_nom_2-7);
      }

      .cls-5 {
        fill: url(#Dégradé_sans_nom_2-2);
      }

      .cls-6 {
        fill: url(#Dégradé_sans_nom_2-6);
      }

      .cls-7 {
        fill: url(#Dégradé_sans_nom_2);
      }
    </style>
    <linearGradient id="Dégradé_sans_nom_2" data-name="Dégradé sans nom 2" x1="4.89" y1="28.18" x2="43.25" y2="28.18" gradientUnits="userSpaceOnUse">
      <stop offset="0" stop-color="#2ecc71"/>
      <stop offset="1" stop-color="#4a90e2"/>
    </linearGradient>
    <linearGradient id="Dégradé_sans_nom_2-2" data-name="Dégradé sans nom 2" x1="8.52" y1="28.18" x2="39.62" y2="28.18" xlink:href="#Dégradé_sans_nom_2"/>
    <linearGradient id="Dégradé_sans_nom_2-3" data-name="Dégradé sans nom 2" x1="17.9" y1="14.2" x2="30.25" y2="14.2" xlink:href="#Dégradé_sans_nom_2"/>
    <linearGradient id="Dégradé_sans_nom_2-4" data-name="Dégradé sans nom 2" x1="23.48" y1="8.98" x2="24.67" y2="8.98" xlink:href="#Dégradé_sans_nom_2"/>
    <linearGradient id="Dégradé_sans_nom_2-5" data-name="Dégradé sans nom 2" x1="22.29" y1="3.2" x2="25.86" y2="3.2" xlink:href="#Dégradé_sans_nom_2"/>
    <linearGradient id="Dégradé_sans_nom_2-6" data-name="Dégradé sans nom 2" x1="44.4" y1="27.96" x2="46.54" y2="27.96" xlink:href="#Dégradé_sans_nom_2"/>
    <linearGradient id="Dégradé_sans_nom_2-7" data-name="Dégradé sans nom 2" x1="1.46" y1="27.96" x2="3.74" y2="27.96" xlink:href="#Dégradé_sans_nom_2"/>
  </defs>
  <path class="cls-7" d="m35.65,16.58H12.5c-4.19,0-7.61,3.41-7.61,7.61v7.98c0,4.19,3.41,7.61,7.61,7.61h23.15c4.19,0,7.61-3.41,7.61-7.61v-7.98c0-4.19-3.41-7.61-7.61-7.61Zm5.16,14.23c0,3.91-3.18,7.09-7.09,7.09H14.42c-3.91,0-7.09-3.18-7.09-7.09v-5.26c0-3.91,3.18-7.09,7.09-7.09h19.29c3.91,0,7.09,3.18,7.09,7.09v5.26Z"/>
  <path class="cls-5" d="m33.72,19.65H14.42c-3.25,0-5.9,2.65-5.9,5.9v5.26c0,3.25,2.65,5.9,5.9,5.9h19.29c3.25,0,5.9-2.65,5.9-5.9v-5.26c0-3.25-2.65-5.9-5.9-5.9Zm-18.63,10.53c-2.25,0-4.09-1.83-4.09-4.09s1.83-4.09,4.09-4.09,4.09,1.83,4.09,4.09-1.84,4.09-4.09,4.09Zm13.59,4.84h-9.22v-1.19h9.22v1.19Zm4.37-4.84c-2.25,0-4.09-1.83-4.09-4.09s1.84-4.09,4.09-4.09,4.09,1.83,4.09,4.09-1.83,4.09-4.09,4.09Z"/>
  <path class="cls-3" d="m24.07,13.01c-2.5,0-4.81.92-6.17,2.38h12.35c-1.36-1.46-3.67-2.38-6.17-2.38Z"/>
  <path class="cls-1" d="m23.48,6.11v5.73c.2-.01.39-.02.59-.02s.4,0,.59.02v-5.73c-.13.03-.26.05-.4.06-.07,0-.13,0-.2,0-.2,0-.4-.02-.59-.06Z"/>
  <path class="cls-2" d="m25.42,4.37c.65-.74.57-1.87-.17-2.52-.33-.29-.76-.44-1.17-.44-.49,0-.99.21-1.34.61-.65.74-.57,1.87.17,2.52.74.65,1.87.57,2.52-.17Z"/>
  <path class="cls-6" d="m44.4,23.39c.03.27.04.54.04.8v7.98c0,.12,0,.24-.01.36,1.23-.34,2.11-1.46,2.11-2.8v-3.56c0-1.33-.91-2.46-2.14-2.79Z"/>
  <path class="cls-4" d="m3.74,23.35c-1.3.29-2.28,1.46-2.28,2.83v3.56c0,1.39.95,2.54,2.25,2.83-.01-.13-.01-.26-.01-.39v-7.98c0-.29.01-.56.04-.84Z"/>
</svg>