<?xml version="1.0" encoding="UTF-8"?>
<svg id="Calque_1" data-name="Calque 1" xmlns="http://www.w3.org/2000/svg" xmlns:xlink="http://www.w3.org/1999/xlink" viewBox="0 0 48 48">
  <defs>
    <style>
      .cls-1 {
        fill: url(#Dégradé_sans_nom_2);
        stroke-width: 0px;
      }
    </style>
    <linearGradient id="Dégradé_sans_nom_2" data-name="Dégradé sans nom 2" x1="7.18" y1="27.53" x2="38.18" y2="27.53" gradientTransform="translate(0 50) scale(1 -1)" gradientUnits="userSpaceOnUse">
      <stop offset="0" stop-color="#2ecc71"/>
      <stop offset="1" stop-color="#4a90e2"/>
    </linearGradient>
  </defs>
  <path class="cls-1" d="m30.87,40.76c-6.33-.27-11.05-2.86-14.28-7.77-1.39-2.14-2.72-3.5-5.45-3.15-1.82.24-3.76.03-3.95-2.35-.19-2.3,1.49-2.91,3.47-2.94,1.52,0,2.83-.43,2.7-2.22-.11-1.68-1.44-2.11-2.94-2.03-1.92.11-3.28-.64-3.23-2.7.05-2.22,1.76-2.59,3.47-2.35,3.04.43,4.56-1.17,6.11-3.5,4-6.03,11.5-8.86,17.59-7.07,1.74.51,3.15,1.31,2.78,3.31-.37,2.08-2,2.24-3.79,1.82-3.82-.91-7.21.13-10.22,2.51-.61.48-1.39,1.01-1.15,1.98.27,1.01,1.2.91,2,.93,1.49.03,2.96.03,4.46,0,1.79-.03,2.94.77,2.88,2.59-.08,1.76-1.23,2.56-3.02,2.51-2.03-.05-4.06,0-6.09,0-1.6,0-3.23.24-3.34,2.11-.13,2.08,1.68,2.08,3.18,2.14,1.9.03,3.79,0,5.69,0,1.9.03,3.74.43,3.6,2.78-.11,1.95-1.63,2.62-3.47,2.54-.67-.03-1.36-.08-2.03,0-1.25.16-3.18-.69-3.66.69-.67,1.98,1.57,2.64,2.83,3.36,2.51,1.39,5.21,2.22,8.14,1.2,1.82-.61,4.06-1.28,4.83,1.15.85,2.7-1.49,3.39-3.5,3.92-1.28.35-2.64.4-3.63.53Z"/>
</svg>