<?xml version="1.0" encoding="UTF-8"?>
<svg id="Calque_1" data-name="Calque 1" xmlns="http://www.w3.org/2000/svg" xmlns:xlink="http://www.w3.org/1999/xlink" viewBox="0 0 1219.2 197.08">
  <defs>
    <style>
      .cls-1 {
        fill: url(#Dégradé_sans_nom_2-4);
      }

      .cls-1, .cls-2, .cls-3, .cls-4, .cls-5, .cls-6, .cls-7, .cls-8, .cls-9, .cls-10 {
        stroke-width: 0px;
      }

      .cls-2 {
        fill: url(#Dégradé_sans_nom_2-5);
      }

      .cls-3 {
        fill: url(#Dégradé_sans_nom_2-8);
      }

      .cls-4 {
        fill: url(#Dégradé_sans_nom_2-3);
      }

      .cls-5 {
        fill: url(#Dégradé_sans_nom_2-7);
      }

      .cls-6 {
        fill: url(#Dégradé_sans_nom_2-2);
      }

      .cls-7 {
        fill: url(#Dégradé_sans_nom_2-6);
      }

      .cls-8 {
        fill: url(#Dégradé_sans_nom_2);
      }

      .cls-9 {
        fill: url(#Dégradé_sans_nom_2-10);
      }

      .cls-10 {
        fill: url(#Dégradé_sans_nom_2-9);
      }
    </style>
    <linearGradient id="Dégradé_sans_nom_2" data-name="Dégradé sans nom 2" x1="211.69" y1="98.54" x2="421.79" y2="98.54" gradientUnits="userSpaceOnUse">
      <stop offset="0" stop-color="#2ecc71"/>
      <stop offset="1" stop-color="#4a90e2"/>
    </linearGradient>
    <linearGradient id="Dégradé_sans_nom_2-2" data-name="Dégradé sans nom 2" x1="0" y1="97.83" x2="178.77" y2="97.83" xlink:href="#Dégradé_sans_nom_2"/>
    <linearGradient id="Dégradé_sans_nom_2-3" data-name="Dégradé sans nom 2" x1="1043.55" y1="99.5" x2="1219.2" y2="99.5" xlink:href="#Dégradé_sans_nom_2"/>
    <linearGradient id="Dégradé_sans_nom_2-4" data-name="Dégradé sans nom 2" x1="844.25" y1="97.53" x2="1012.44" y2="97.53" xlink:href="#Dégradé_sans_nom_2"/>
    <linearGradient id="Dégradé_sans_nom_2-5" data-name="Dégradé sans nom 2" x1="439.56" y1="97.63" x2="633.86" y2="97.63" xlink:href="#Dégradé_sans_nom_2"/>
    <linearGradient id="Dégradé_sans_nom_2-6" data-name="Dégradé sans nom 2" x1="666.13" y1="23.82" x2="813.84" y2="23.82" xlink:href="#Dégradé_sans_nom_2"/>
    <linearGradient id="Dégradé_sans_nom_2-7" data-name="Dégradé sans nom 2" x1="666.47" y1="96.22" x2="814.79" y2="96.22" xlink:href="#Dégradé_sans_nom_2"/>
    <linearGradient id="Dégradé_sans_nom_2-8" data-name="Dégradé sans nom 2" x1="666.12" y1="171.93" x2="814.5" y2="171.93" xlink:href="#Dégradé_sans_nom_2"/>
    <linearGradient id="Dégradé_sans_nom_2-9" data-name="Dégradé sans nom 2" x1="564.61" y1="161.73" x2="638.3" y2="161.73" xlink:href="#Dégradé_sans_nom_2"/>
    <linearGradient id="Dégradé_sans_nom_2-10" data-name="Dégradé sans nom 2" x1="442.26" y1="32.81" x2="514.41" y2="32.81" xlink:href="#Dégradé_sans_nom_2"/>
  </defs>
  <path class="cls-8" d="m317.13,197.08c-38.76-2.32-71.22-15.49-91.5-49.76-35.83-60.54.78-135.4,71.15-145.63,42.4-6.16,79.96,3.83,106.47,39.83,38.45,52.22,14.35,126.98-47.26,147.39-12.48,4.14-25.88,5.51-38.86,8.16Zm-51.39-100.1c-.17,31.58,20.76,54.69,49.61,54.79,30.17.1,52.24-22.08,52.77-53.05.54-31.26-21.76-54.8-51.97-54.85-28.53-.05-50.25,22.83-50.42,53.11Z"/>
  <path class="cls-6" d="m0,153.76c31.34,0,61.86.17,92.38-.13,7.05-.07,14.29-.99,21.07-2.85,7.66-2.11,11.39-8,11.34-16.23-.05-8.57-3.89-14.66-12.01-16.81-6.5-1.73-13.42-2.54-20.17-2.6-30.54-.26-61.09-.12-92.38-.12v-36.32c3.27-.14,6.71-.42,10.16-.42,25.69-.04,51.39.14,77.08-.14,6.08-.07,12.34-1,18.17-2.71,7.03-2.07,11.12-8.16,9.78-14.98-1.06-5.36-4.48-12.21-8.88-14.5-6.23-3.24-14.31-3.77-21.63-3.9-24.39-.43-48.78-.16-73.17-.17-3.54,0-7.08,0-11.42,0V4.6c.22-.17.73-.89,1.23-.88,39.31.56,78.67.16,117.91,2.21,19.71,1.03,37.23,9.9,46.19,29.42,8.7,18.96,2.73,40.36-13.96,53.05-2.01,1.53-3.84,3.32-6.14,5.33,4.39,2.55,8.34,4.57,12.02,7.01,30.29,20.05,27.64,64.57-4.67,80.98-15.52,7.88-32.24,9.88-49.2,10.05-32.85.32-65.69.14-98.54.13-1.56,0-3.12-.44-5.13-.74v-37.39Z"/>
  <path class="cls-4" d="m1168.86,4.17h49.14c.5.68,1.21,1.19,1.2,1.7-.39,40.28.59,80.64-1.71,120.82-2.09,36.43-32.31,64.34-69.34,67.35-20.77,1.69-41.43,1.4-61.02-7.84-24.81-11.69-40-31.57-41.67-58.05-2.52-40.16-1.49-80.55-1.92-120.84,0-.9.65-1.8,1.13-3.04h50.08c.21,4.58.53,8.7.58,12.82.37,33.48-.18,67,1.29,100.42,1.19,27.02,23.68,41.22,48.71,32.58,13.48-4.65,22.02-17.48,22.3-35.57.51-32.83.41-65.67.61-98.51.02-3.82.39-7.65.61-11.83Z"/>
  <path class="cls-1" d="m954.82,190.7h-52.36V45.42c-16.35,0-31.52-.53-46.63.2-9.07.44-12.14-2.47-11.5-11.46.69-9.66.16-19.41.16-29.8h167.89c0,11.92.31,24.15-.35,36.32-.09,1.71-4.83,4.42-7.5,4.52-12.66.48-25.35.22-38.03.22-3.52,0-7.04,0-11.67,0v145.28Z"/>
  <path class="cls-2" d="m439.56,191.76c26.4-36.1,51.13-69.93,75.88-103.74,18.81-25.71,37.77-51.3,56.36-77.17,3.76-5.24,7.59-7.75,14.31-7.5,15.25.55,30.54.17,47.76.17-7.63,10.85-14.37,20.56-21.23,30.18-35.7,50.02-71.53,99.95-107.01,150.12-4.28,6.06-8.84,8.34-16.14,8.1-15.83-.52-31.69-.16-49.93-.16Z"/>
  <path class="cls-7" d="m666.13,43.48V4.17h147.71v39.31h-147.71Z"/>
  <path class="cls-5" d="m814.58,115.54h-148.11v-37.74c2.72-.21,5.79-.64,8.86-.64,42.89-.04,85.78.22,128.66-.24,8.91-.1,11.27,2.95,10.72,11.2-.6,8.94-.14,17.94-.14,27.42Z"/>
  <path class="cls-3" d="m666.12,191.52v-39.23h148.28c0,11.82.39,23.13-.4,34.36-.13,1.81-5.5,4.57-8.51,4.64-17.56.45-35.14.23-52.71.23-24.73,0-49.46,0-74.2,0-3.85,0-7.7,0-12.46,0Z"/>
  <path class="cls-10" d="m564.61,169.6c9.25-12.02,19.12-24.84,29.76-38.67,14.43,19.98,28.38,39.28,43.94,60.83-9.73,0-17.28,0-24.83,0-4.22,0-8.54-.55-12.66.1-17.52,2.76-30.29-2.63-36.21-22.25Z"/>
  <path class="cls-9" d="m514.41,24.16c-9.86,12.2-19.83,24.55-30.65,37.94-13.61-19.21-26.8-37.84-41.5-58.59h21.43c6.5,0,13,0,19.5,0q21.28,0,31.21,20.65Z"/>
</svg>