<?xml version="1.0" encoding="UTF-8"?>
<svg id="Calque_1" data-name="Calque 1" xmlns="http://www.w3.org/2000/svg" xmlns:xlink="http://www.w3.org/1999/xlink" viewBox="0 0 48 48">
  <defs>
    <style>
      .cls-1 {
        fill: url(#Dégradé_sans_nom_2-2);
      }

      .cls-1, .cls-2 {
        stroke-width: 0px;
      }

      .cls-2 {
        fill: url(#Dégradé_sans_nom_2);
      }
    </style>
    <linearGradient id="Dégradé_sans_nom_2" data-name="Dégradé sans nom 2" x1="10.63" y1="27.99" x2="45.47" y2="27.99" gradientUnits="userSpaceOnUse">
      <stop offset="0" stop-color="#2ecc71"/>
      <stop offset="1" stop-color="#4a90e2"/>
    </linearGradient>
    <linearGradient id="Dégradé_sans_nom_2-2" data-name="Dégradé sans nom 2" x1="2.53" y1="18.04" x2="27.71" y2="18.04" xlink:href="#Dégradé_sans_nom_2"/>
  </defs>
  <path class="cls-2" d="m41.16,13.82H14.93c-.81,0-1.55.33-2.09.87-.54.54-.87,1.28-.87,2.09v16.12c0,.81.33,1.55.87,2.09.54.54,1.28.87,2.09.87h18.34c.19,0,.36.08.48.2l5.15,5.15v-4.67c0-.37.3-.68.68-.68h1.59c.81,0,1.55-.33,2.09-.87.54-.54.87-1.28.87-2.09v-16.12c0-.81-.33-1.55-.87-2.09-.54-.54-1.28-.87-2.09-.87h0Zm-26.23-1.35h26.23c1.19,0,2.26.48,3.04,1.27.78.78,1.26,1.86,1.26,3.04v16.12c0,1.19-.48,2.26-1.26,3.04-.78.78-1.86,1.27-3.04,1.27h-.91v5.63h0c0,.17-.07.35-.2.48-.26.26-.69.26-.96,0h0s-6.1-6.1-6.1-6.1H14.93c-1.19,0-2.26-.48-3.04-1.27-.78-.78-1.27-1.86-1.27-3.04v-16.12c0-1.19.48-2.26,1.27-3.04.78-.78,1.86-1.27,3.04-1.27Z"/>
  <path class="cls-1" d="m5.79,6.8h18.66c.9,0,1.71.37,2.3.96.59.59.96,1.41.96,2.3v3.08c0,.37-.3.68-.68.68h-12.1c-.81,0-1.55.33-2.09.87-.54.54-.87,1.28-.87,2.09v7.44c0,.19-.08.36-.2.48l-4.38,4.38h0c-.26.26-.69.26-.96,0-.13-.13-.2-.3-.2-.48h0v-3.81h-.46c-.9,0-1.71-.37-2.3-.96-.59-.59-.96-1.41-.96-2.3v-11.47c0-.9.37-1.71.96-2.3.59-.59,1.41-.96,2.3-.96h0Zm18.66,1.35H5.79c-.52,0-1,.21-1.35.56-.35.35-.56.82-.56,1.35v11.47c0,.52.21,1,.56,1.35s.82.56,1.35.56h1.13c.37,0,.68.3.68.68v2.85l3.03-3.03v-7.16c0-1.19.48-2.26,1.27-3.04.78-.78,1.86-1.27,3.04-1.27h11.42v-2.4c0-.52-.22-1-.56-1.35-.35-.35-.82-.56-1.35-.56Z"/>
</svg>