<?xml version="1.0" encoding="UTF-8"?>
<svg id="Calque_1" data-name="Calque 1" xmlns="http://www.w3.org/2000/svg" xmlns:xlink="http://www.w3.org/1999/xlink" viewBox="0 0 48 48">
  <defs>
    <style>
      .cls-1 {
        fill: url(#Dégradé_sans_nom_2-2);
      }

      .cls-1, .cls-2 {
        stroke-width: 0px;
      }

      .cls-2 {
        fill: url(#Dégradé_sans_nom_2);
      }
    </style>
    <linearGradient id="Dégradé_sans_nom_2" data-name="Dégradé sans nom 2" x1="10.33" y1="28.52" x2="45.94" y2="28.52" gradientUnits="userSpaceOnUse">
      <stop offset="0" stop-color="#2ecc71"/>
      <stop offset="1" stop-color="#4a90e2"/>
    </linearGradient>
    <linearGradient id="Dégradé_sans_nom_2-2" data-name="Dégradé sans nom 2" x1="2.06" y1="18.36" x2="27.79" y2="18.36" xlink:href="#Dégradé_sans_nom_2"/>
  </defs>
  <path class="cls-2" d="m41.54,14.04H14.74c-.83,0-1.59.34-2.13.89-.55.55-.89,1.3-.89,2.13v16.48c0,.83.34,1.59.89,2.13.55.55,1.3.89,2.13.89h18.74c.19,0,.37.08.49.21l5.26,5.26v-4.77c0-.38.31-.69.69-.69h1.62c.83,0,1.59-.34,2.13-.89.55-.55.89-1.3.89-2.13v-16.48c0-.83-.34-1.59-.89-2.13-.55-.55-1.3-.89-2.13-.89h0Zm-26.8-1.38h26.8c1.21,0,2.31.5,3.11,1.29.8.8,1.29,1.9,1.29,3.11v16.48c0,1.21-.5,2.31-1.29,3.11-.8.8-1.9,1.29-3.11,1.29h-.93v5.75h0c0,.18-.07.35-.2.49-.27.27-.71.27-.98,0h0s-6.24-6.24-6.24-6.24H14.74c-1.21,0-2.31-.5-3.11-1.29-.8-.8-1.29-1.9-1.29-3.11v-16.48c0-1.21.5-2.31,1.29-3.11.8-.8,1.9-1.29,3.11-1.29Z"/>
  <path class="cls-1" d="m5.39,6.88h19.07c.92,0,1.75.37,2.35.98.6.6.98,1.44.98,2.35v3.15c0,.38-.31.69-.69.69h-12.36c-.83,0-1.59.34-2.13.89-.55.55-.89,1.3-.89,2.13v7.61c0,.19-.08.37-.21.49l-4.48,4.47h0c-.27.27-.71.27-.98,0-.13-.13-.2-.31-.2-.49h0v-3.89h-.47c-.92,0-1.75-.37-2.35-.98-.6-.6-.98-1.44-.98-2.35v-11.72c0-.92.37-1.75.98-2.35.6-.6,1.44-.98,2.35-.98h0Zm19.07,1.38H5.39c-.54,0-1.02.22-1.38.57-.35.35-.57.84-.57,1.38v11.72c0,.54.22,1.02.57,1.38s.84.57,1.38.57h1.16c.38,0,.69.31.69.69v2.91l3.1-3.1v-7.32c0-1.21.5-2.31,1.29-3.11.8-.8,1.9-1.29,3.11-1.29h11.67v-2.46c0-.54-.22-1.02-.57-1.38-.35-.35-.84-.57-1.38-.57Z"/>
</svg>