<?xml version="1.0" encoding="UTF-8"?>
<svg id="Calque_1" data-name="Calque 1" xmlns="http://www.w3.org/2000/svg" xmlns:xlink="http://www.w3.org/1999/xlink" viewBox="0 0 48 48">
  <defs>
    <style>
      .cls-1 {
        fill: url(#Studymarket-2);
      }

      .cls-1, .cls-2, .cls-3, .cls-4 {
        stroke-width: 0px;
      }

      .cls-2 {
        fill: url(#Studymarket-4);
      }

      .cls-3 {
        fill: url(#Studymarket);
      }

      .cls-4 {
        fill: url(#Studymarket-3);
      }
    </style>
    <linearGradient id="Studymarket" x1="12.01" y1="20.88" x2="36.28" y2="20.88" gradientUnits="userSpaceOnUse">
      <stop offset="0" stop-color="#2ecc71"/>
      <stop offset="1" stop-color="#4a90e2"/>
    </linearGradient>
    <linearGradient id="Studymarket-2" data-name="Studymarket" x1="22.7" y1="12.57" x2="22.85" y2="12.57" xlink:href="#Studymarket"/>
    <linearGradient id="Studymarket-3" data-name="Studymarket" x1="14.63" y1="30.73" x2="38.48" y2="30.73" xlink:href="#Studymarket"/>
    <linearGradient id="Studymarket-4" data-name="Studymarket" x1="19.22" y1="25.81" x2="31.39" y2="25.81" xlink:href="#Studymarket"/>
  </defs>
  <path class="cls-3" d="m36.21,18.87c.07.5-.39.88-1.08,1.12s-1.64.36-2.52.33c-.88-.03-1.71-.2-2.2-.52s-.61-.79-.1-1.41c.17-.25.29-.47.35-.66s.06-.36.01-.51c-.05-.15-.15-.29-.3-.42s-.35-.26-.6-.38c-1.43-.72-2.97-1.04-4.5-1.02s-3.04.39-4.41,1.05c-1.38.66-2.61,1.63-3.58,2.85s-1.67,2.7-1.99,4.38c-.06.32-.13.64-.18.96s-.1.63-.13.95c-.02.32-.03.64,0,.97s.1.66.22.99c.1.49.02.89-.18,1.19s-.51.49-.87.57c-.35.08-.74.04-1.09-.11s-.66-.44-.85-.86c-.14-.85-.2-1.69-.2-2.51s.07-1.6.2-2.36c.31-1.92,1-3.66,1.97-5.17s2.23-2.78,3.69-3.75c.72-.48,1.49-.89,2.3-1.21s1.66-.57,2.53-.72c.01-.01.03-.02.04-.02s.03,0,.04,0c1.56-.27,3.21-.25,4.88.1s3.35,1.03,4.98,2.09c.15.11.29.17.43.18s.27-.01.4-.06c.13-.05.26-.13.39-.23s.26-.19.39-.29c.68-.45,1.14-.49,1.45-.26s.46.7.53,1.28c.07.58.06,1.26.03,1.89s-.07,1.2-.05,1.57Z"/>
  <path class="cls-1" d="m22.85,12.53l-.07.07s-.05,0-.08.02c.05-.03.1-.06.15-.09Z"/>
  <path class="cls-4" d="m14.64,34.75q0-3.37,3.42-3.37c.46,0,.92-.04,1.36.04,1.23.23,1.6.92.87,1.92-.76,1.04-.36,1.47.59,1.94,5.93,2.95,13.22-.76,14.47-7.35.25-1.31.42-2.59.09-3.89-.25-.98.41-1.46,1.11-1.71.84-.3,1.36.34,1.58,1.05.47,1.53.42,3.15.13,4.66-1.34,6.84-6.08,10.71-12.85,11.14-2.42.15-4.91-.55-7-2.05-.55-.39-1.07-.76-1.72-.08-.41.43-.95.89-1.6.57-.68-.34-.4-1.07-.44-1.65-.03-.4,0-.81,0-1.22Z"/>
  <path class="cls-2" d="m31.06,24.05c.17-.23.22-.55.33-.83-.29-.96-.7-1.66-1.88-1.58-1.12.07-2.19-.23-2.6-1.4-.28-.79-.75-1.2-1.5-1.28-.9-.1-1.34.51-1.69,1.25-.47,1.01-1.27,1.46-2.42,1.47-1.85,0-2.45,1.15-1.55,2.8.55,1,.65,2.02-.1,2.95-.44.54-.61,1.04-.17,1.64.42.56.74,1.2,1.68.92,1.18-.35,1.95.39,2.49,1.28,1.15,1.89,2.17,1.9,3.37,0,.56-.88,1.27-1.64,2.46-1.25.68.22,1.09-.02,1.42-.52.36-.56.71-1.16.22-1.82-.89-1.2-.97-2.39-.07-3.62Zm-5.85,3.97c-1.04-.05-2.05-1.16-2.05-2.26,0-1.25.89-2.01,2.32-1.98,1.22.02,1.96.87,1.92,2.18-.03,1.03-1.18,2.11-2.2,2.06Z"/>
</svg>