<?xml version="1.0" encoding="UTF-8"?>
<svg id="Calque_1" data-name="Calque 1" xmlns="http://www.w3.org/2000/svg" viewBox="0 0 48 48">
  <defs>
    <style>
      .cls-1 {
        fill: #fff;
        stroke-width: 0px;
      }
    </style>
  </defs>
  <path class="cls-1" d="m10.64,36.38v-2.4c0-.79.2-1.6.69-2.23s.71-1.29.83-2c.16-1,.09-2.06.09-3.1,0-.49-.04-1.04.07-1.51s.37-.87.97-1.07c.67-.22,1.37-.35,2.06-.33s1.37.2,2.02.58c.29.17.45.41.55.7s.13.59.15.9c.03.5.03,1,.03,1.51s0,1,.02,1.51c.02.45-.04.96.08,1.36s.42.7,1.18.72c.77.02,1.09-.25,1.22-.65s.07-.9.09-1.36c.02-.48.01-.95,0-1.43s0-.95.06-1.43c.11-.91.36-1.51.88-1.87s1.3-.49,2.45-.46c.98.03,1.64.19,2.07.56s.62.97.68,1.86c.04.58.04,1.15.04,1.73s-.01,1.16,0,1.73c0,.42.07.75.26.97s.49.35.96.35c.49,0,.82-.11,1.04-.33s.31-.57.32-1.03c0-.58,0-1.16-.01-1.73s0-1.16.05-1.73c.06-.81.24-1.36.61-1.74s.93-.56,1.74-.62c.2-.02.4-.02.6-.03s.4,0,.6.02c.89.05,1.5.23,1.9.62s.59.99.65,1.87c.02.35.03.7.03,1.05s0,.7-.02,1.05c-.02.64-.02,1.24.13,1.81s.45,1.1,1.02,1.57c.41.33.62,1.3.64,2.29s-.13,2.01-.43,2.46c-.21.3-.46.49-.76.6s-.62.14-.96.14c-3.74,0-7.49,0-11.23,0s-7.48,0-11.23,0c-.42.01-.85.04-1.23-.07s-.7-.33-.9-.84Z"/>
  <g>
    <path class="cls-1" d="m35.93,18.34c-3.91-2.52-7.81-5.07-11.72-7.61h-.6c-4.11,2.36-7.96,5.13-11.95,7.67-.4.26-.68.71-1.02,1.08v1.21c.6.82,1.35,1.23,2.42,1.22,7.24-.03,14.48-.03,21.72,0,.98,0,1.73-.33,2.02-1.22.3-.92.04-1.76-.87-2.34Z"/>
    <path class="cls-1" d="m11.66,18.4c4-2.54,7.84-5.31,11.95-7.67-4.07,0-8.14.02-12.22-.02-.65,0-.79.12-.77.77.05,2.66.02,5.33.02,8,.34-.36.61-.82,1.02-1.08Z"/>
  </g>
</svg>