<?xml version="1.0" encoding="UTF-8"?>
<svg id="Calque_1" data-name="Calque 1" xmlns="http://www.w3.org/2000/svg" viewBox="0 0 48 48">
  <defs>
    <style>
      .cls-1 {
        fill: #fff;
        stroke-width: 0px;
      }
    </style>
  </defs>
  <path class="cls-1" d="m19.58,32.69c0,1.05-.65,2.22-1.95,2.9-1.71.9-3.57,1.37-5.47,1.64-1.1.16-1.54-.41-1.33-1.41.37-1.82.75-3.66,1.65-5.31.87-1.6,2.48-2.29,4.22-1.86,1.72.42,2.86,1.84,2.89,4.04Z"/>
  <path class="cls-1" d="m30.69,28.65c.6,3.12-.76,5.35-2.64,7.37-.47.5-.99.42-1.44-.08-.1-.11-.18-.25-.26-.37q-2.17-3.15,1.16-5.08c1.03-.6,2.07-1.2,3.19-1.84Z"/>
  <path class="cls-1" d="m18.02,17.18c1.03-.02,1.59.16.83,1.33-.91,1.39-1.73,2.83-2.52,4.29-.36.67-.65.92-1.36.42-.82-.58-1.72-1.04-2.58-1.57-.67-.41-.98-.98-.34-1.59,1.67-1.6,3.57-2.78,5.97-2.89Z"/>
  <path class="cls-1" d="m33.42,10.81c-4.23-.44-7.49,1.26-9.89,4.68-1.95,2.77-3.54,5.77-5.27,8.67-.37.63-.23.97.23,1.41,1.38,1.34,2.73,2.71,4.09,4.07.33.33.59.63,1.14.29,3.27-2.01,6.75-3.68,9.76-6.1,2.05-1.64,3.41-3.71,3.72-6.38,0-.93.01-1.86.02-2.79-.3-3.15-.66-3.54-3.81-3.86Zm-3.22,10.01c-1.63-.03-2.97-1.38-2.98-2.99,0-1.66,1.47-3.06,3.15-2.99,1.62.06,2.9,1.45,2.86,3.1-.04,1.66-1.36,2.91-3.04,2.89Z"/>
</svg>