<?xml version="1.0" encoding="UTF-8"?>
<svg id="Calque_1" data-name="Calque 1" xmlns="http://www.w3.org/2000/svg" xmlns:xlink="http://www.w3.org/1999/xlink" viewBox="0 0 48 48">
  <defs>
    <style>
      .cls-1 {
        fill: url(#Studymarket);
        stroke-width: 0px;
      }
    </style>
    <linearGradient id="Studymarket" x1="6.96" y1="24" x2="41.04" y2="24" gradientUnits="userSpaceOnUse">
      <stop offset="0" stop-color="#2ecc71"/>
      <stop offset="1" stop-color="#4a90e2"/>
    </linearGradient>
  </defs>
  <path class="cls-1" d="m40.14,41.05v4.49H7.83v-4.49c0-4.45,3.62-8.08,8.08-8.08h16.16c4.45,0,8.08,3.62,8.08,8.08ZM14.78,9.69c2.74-2.57,6.34-3.84,10.11-3.61,7.04.46,12.56,6.59,12.56,13.96,0,3.18-2.58,5.76-5.76,5.76h-4.32c-.44-1.49-1.8-2.58-3.43-2.58-1.98,0-3.59,1.61-3.59,3.59s1.61,3.59,3.59,3.59c.97,0,1.84-.39,2.48-1.01h5.26c5.16,0,9.35-4.2,9.35-9.35,0-9.26-7-16.96-15.93-17.54-4.78-.31-9.32,1.31-12.79,4.57-3.21,3.01-5.14,7.17-5.37,11.55h3.6c.22-3.42,1.7-6.56,4.23-8.93h0Zm14.77,12.52h2.46c.9,0,1.69-.66,1.79-1.55.12-1.05.08-2.16-.16-3.29-.8-3.73-3.83-6.74-7.56-7.51-6.35-1.31-11.95,3.54-11.95,9.66,0,2.64,1.04,5.04,2.73,6.81h0c.2-3.79,3.3-6.81,7.14-6.81,2.26,0,4.25,1.06,5.56,2.69h0Z"/>
</svg>