<?xml version="1.0" encoding="UTF-8"?>
<svg id="Calque_1" data-name="Calque 1" xmlns="http://www.w3.org/2000/svg" xmlns:xlink="http://www.w3.org/1999/xlink" viewBox="0 0 48 48">
  <defs>
    <style>
      .cls-1 {
        fill: url(#Studymarket-2);
      }

      .cls-1, .cls-2, .cls-3, .cls-4, .cls-5 {
        stroke-width: 0px;
      }

      .cls-2 {
        fill: url(#Studymarket-4);
      }

      .cls-3 {
        fill: url(#Studymarket-5);
      }

      .cls-4 {
        fill: url(#Studymarket);
      }

      .cls-5 {
        fill: url(#Studymarket-3);
      }
    </style>
    <linearGradient id="Studymarket" x1="13.54" y1="25.14" x2="34.46" y2="25.14" gradientUnits="userSpaceOnUse">
      <stop offset="0" stop-color="#2ecc71"/>
      <stop offset="1" stop-color="#4a90e2"/>
    </linearGradient>
    <linearGradient id="Studymarket-2" data-name="Studymarket" x1="5.56" y1="31.08" x2="19.84" y2="31.08" xlink:href="#Studymarket"/>
    <linearGradient id="Studymarket-3" data-name="Studymarket" x1="28.16" y1="31.08" x2="42.44" y2="31.08" xlink:href="#Studymarket"/>
    <linearGradient id="Studymarket-4" data-name="Studymarket" x1="6.96" y1="9.3" x2="19.48" y2="9.3" xlink:href="#Studymarket"/>
    <linearGradient id="Studymarket-5" data-name="Studymarket" x1="28.52" y1="9.3" x2="41.04" y2="9.3" xlink:href="#Studymarket"/>
  </defs>
  <path class="cls-4" d="m34.15,23.85c-.17-.34-1.74-3.34-4.94-4.77-1.45-.65-3.14,0-3.79,1.44-.25.57-.31,1.17-.19,1.74h-2.46c.11-.57.06-1.17-.19-1.74-.65-1.44-2.34-2.09-3.79-1.44-3.19,1.44-4.77,4.43-4.94,4.77-.4.81-.4,1.76,0,2.57.17.34,1.74,3.33,4.94,4.77.38.17.78.25,1.17.25,1.09,0,2.14-.63,2.62-1.69.26-.57.31-1.18.19-1.75h2.47c-.12.57-.06,1.18.19,1.76.48,1.06,1.52,1.69,2.62,1.69.39,0,.79-.08,1.18-.25,3.19-1.44,4.77-4.43,4.94-4.77.4-.81.41-1.76,0-2.57h0Z"/>
  <path class="cls-1" d="m17.21,34.68c-4.33-1.94-6.41-5.8-6.79-6.55-.94-1.87-.94-4.11,0-5.98.29-.58,1.59-2.97,4.12-4.94-.17-.03-.35-.05-.53-.05-3.26,0-5.68.85-5.94.95-.9.33-1.58,1.1-1.8,2.03-.03.12-.72,3.1-.72,6.6s.69,6.47.72,6.59c.04.18.1.34.17.51,0,.04,0,.08,0,.12v8.17c0,1.58,1.28,2.87,2.87,2.87s2.87-1.28,2.87-2.87v-5.91c.58.06,1.2.09,1.85.09h.08v5.82c0,1.58,1.28,2.87,2.87,2.87s2.87-1.28,2.87-2.87v-6.87c-.91-.02-1.8-.21-2.63-.59Z"/>
  <path class="cls-5" d="m42.44,26.74c0-3.49-.69-6.47-.72-6.6-.22-.94-.9-1.7-1.8-2.03-.26-.1-2.68-.95-5.94-.95-.18,0-.35.02-.52.05,2.54,1.96,3.84,4.37,4.12,4.94.94,1.86.94,4.1,0,5.98-.38.76-2.48,4.6-6.79,6.54-.84.38-1.72.57-2.63.59v6.87c0,1.58,1.28,2.87,2.87,2.87s2.87-1.28,2.87-2.87v-5.82h.08c.65,0,1.27-.03,1.85-.09v5.91c0,1.58,1.28,2.87,2.87,2.87s2.87-1.28,2.87-2.87v-8.17s0-.08,0-.12c.07-.16.13-.33.17-.51.03-.12.72-3.11.72-6.59h0Z"/>
  <path class="cls-2" d="m13.23,15.61c3.9-.02,6.18-2.31,6.25-6.33-.07-3.9-2.4-6.25-6.27-6.27-3.84.02-6.25,2.52-6.25,6.27,0,3.94,2.35,6.32,6.27,6.34Z"/>
  <path class="cls-3" d="m34.79,15.61c3.9-.02,6.18-2.31,6.25-6.33-.07-3.9-2.4-6.25-6.27-6.27-3.84.02-6.25,2.52-6.25,6.27,0,3.94,2.35,6.32,6.27,6.34Z"/>
</svg>