<?xml version="1.0" encoding="UTF-8"?>
<svg id="Calque_1" data-name="Calque 1" xmlns="http://www.w3.org/2000/svg" viewBox="0 0 48 48">
  <defs>
    <style>
      .cls-1 {
        fill: #fff;
        stroke-width: 0px;
      }
    </style>
  </defs>
  <path class="cls-1" d="m10.7,35.23c2.28-.69,2.22-2.48,2.15-4.38-.1-2.63.07-5.26-.06-7.89-.07-1.47.47-1.8,1.81-1.73,1.97.1,3.94.01,5.92.03.84,0,1.62-.17,1.68-1.12.07-1.1-.85-1.28-1.68-1.3-2.12-.05-4.25-.05-6.37,0-.95.02-1.35-.23-1.35-1.26,0-1.11.54-1.23,1.41-1.2,1.21.04,2.43.02,3.64,0,.84-.01,1.68-.06,1.66-1.24-.03-1.2-.91-1.16-1.72-1.18-1.32-.02-2.63-.03-3.95,0-.94.02-1.16-.37-.86-1.23.48-1.35,1.45-2.08,2.84-2.1,3.09-.05,6.17-.05,9.26,0,1.45.02,2.58,1.18,2.62,2.63.06,2.02,0,4.05.03,6.07,0,.58-.25.91-.67,1.25-2.18,1.79-2.87,5.7-1.24,7.82.63.81.03,1.28-.5,1.76-1.6,1.44-2.64,3.16-2.78,5.36.05,1.53-.8,1.75-2.13,1.7-2.8-.1-5.6-.03-8.4-.03-.62.07-1.03-.23-1.31-.75v-1.22Z"/>
  <path class="cls-1" d="m11.61,37.06c2.83,0,5.66-.04,8.49.02,1.23.03,2.27-.01,2.45-1.54,0,.61,0,1.22,0,1.82h-10.94c-.1-.07-.14-.13-.1-.2.03-.07.07-.1.1-.1Z"/>
  <path class="cls-1" d="m36.84,37.06c0,.1,0,.2,0,.3h-11.85c0-.1,0-.2,0-.3.42-.46.99-.47,1.54-.47,2.92-.03,5.85-.03,8.77,0,.55,0,1.12.03,1.54.48Z"/>
  <path class="cls-1" d="m11.61,37.06c0,.1,0,.2,0,.3-.76.15-1.06-.15-.91-.91.3.2.61.41.91.61Z"/>
  <path class="cls-1" d="m36.84,37.06c-3.95,0-7.9,0-11.85,0-.87-2.05,1.09-4.79,2.77-5.79,4.1-2.44,9.25.24,9.58,4.97.03.44-.17.65-.5.82Z"/>
  <path class="cls-1" d="m34.71,25.37c0,1.95-1.68,3.71-3.59,3.77-1.89.06-3.9-1.96-3.92-3.91-.01-1.97,1.77-3.66,3.86-3.66,2.03,0,3.65,1.69,3.65,3.81Z"/>
</svg>