<?xml version="1.0" encoding="UTF-8"?>
<svg id="Calque_1" data-name="Calque 1" xmlns="http://www.w3.org/2000/svg" viewBox="0 0 48 48">
  <defs>
    <style>
      .cls-1 {
        fill: #fff;
        stroke-width: 0px;
      }
    </style>
  </defs>
  <path class="cls-1" d="m11.37,37.34c0-.09-.01-.18-.03-.27,1.93-.84,3.86-.79,5.8-.03,0,.1,0,.2,0,.3h-5.77Z"/>
  <path class="cls-1" d="m26.89,37.07c-.02.09-.03.18-.03.27h-5.77c0-.1,0-.2,0-.31,1.94-.74,3.87-.8,5.8.04Z"/>
  <path class="cls-1" d="m31.11,37.34c-.02-.08-.03-.17-.04-.25,1.75-.93,3.55-.56,5.35-.24.19.12.24.28.15.49h-5.47Z"/>
  <path class="cls-1" d="m37.24,36.46c-.1.32-.31.54-.63.63-1.84,0-3.69,0-5.53,0-.71-.25-.59-.85-.59-1.39,0-4.14.02-8.27-.01-12.41-.01-1.47.73-2.14,2.08-2.23.9-.06,1.82-.06,2.72,0,.9.06,1.68.38,1.95,1.38,0,4.68.01,9.35.02,14.03Z"/>
  <path class="cls-1" d="m26.89,37.07c-1.93-.01-3.86-.03-5.8-.04-.54-.37-.52-.92-.52-1.49,0-3.03-.01-6.05,0-9.08.01-1.92.63-2.51,2.55-2.54,4.35-.08,4.36-.06,4.36,4.33,0,2.42,0,4.84,0,7.26,0,.59.13,1.24-.6,1.56Z"/>
  <path class="cls-1" d="m17.14,37.04c-1.93.01-3.86.02-5.8.03-.55-.26-.59-.75-.58-1.28,0-2.27-.02-4.55.01-6.82.02-1.47.75-2.21,2.26-2.23,4.03-.05,4.83-.3,4.64,4.42-.06,1.46,0,2.93,0,4.4,0,.55.05,1.13-.52,1.48Z"/>
  <path class="cls-1" d="m14.79,21.87c-.91.04-1.28-.31-1.39-.94-.13-.79.3-1.21.98-1.5,2.36-1.01,4.72-2.03,7.08-3.05,1.67-.72,3.32-1.46,5-2.15.88-.36,1.24-.84.96-1.86-.37-1.38.4-2.04,1.72-1.55.99.37,1.95.81,2.93,1.22.09.04.19.07.28.12.95.55.8,1.39.35,2.09-.78,1.22-.32,3.3-2.41,3.61-.45.07-.75-.33-.9-.7-.47-1.17-1.2-1.08-2.19-.64-3.68,1.64-7.39,3.23-11.09,4.83-.5.22-1.02.4-1.32.51Z"/>
</svg>