<?xml version="1.0" encoding="UTF-8"?>
<svg id="Calque_1" data-name="Calque 1" xmlns="http://www.w3.org/2000/svg" viewBox="0 0 48 48">
  <defs>
    <style>
      .cls-1 {
        fill: #fff;
        stroke-width: 0px;
      }
    </style>
  </defs>
  <path class="cls-1" d="m33.1,10.57h2.13c1.8.65,2.12,1.07,2.17,2.97.03,1.01-.08,2.02-.4,2.99-2,6-3.96,12.02-6.02,18-.86,2.5-2.22,3.22-4.79,2.8-.65-.11-1.1-.46-1.55-.88-.22-.21-.47-.4-.65-.64-1.49-1.99-3.09-2.7-5.48-1.18-1.61,1.02-2.56.27-2.66-1.63,0-.1,0-.2,0-.3.03-6.18-.54-4.77,3.93-8.09,2.72-2.02,5.49-3.98,8.22-6,.16-.12.35-.22.49-.35.42-.39,1.3-.7.88-1.35-.45-.69-1.11,0-1.55.31-3.52,2.47-7,5.01-10.47,7.54-2.42,1.77-2.64,1.75-4.83-.4-.84-.82-1.62-1.65-1.91-2.84v-1.82c.18-1.53,1.1-2.39,2.5-2.87,5.62-1.93,11.27-3.78,16.92-5.65,1-.33,2.08-.25,3.08-.61Z"/>
</svg>