<?xml version="1.0" encoding="UTF-8"?>
<svg id="Calque_1" data-name="Calque 1" xmlns="http://www.w3.org/2000/svg" viewBox="0 0 48 48">
  <defs>
    <style>
      .cls-1 {
        fill: #2c3e50;
        stroke-width: 0px;
      }
    </style>
  </defs>
  <path class="cls-1" d="m10.16,15.33c-1.38,0-2.7-.54-3.67-1.52l-2.67-2.38c-.71-.64-.78-1.73-.14-2.44.64-.71,1.73-.78,2.44-.14h0l2.74,2.45c.64.71,1.73.78,2.44.14.03-.02.05-.05.08-.07l6.23-5.93c.71-.64,1.81-.57,2.44.14.61.68.58,1.71-.06,2.36l-6.21,5.9c-.96.96-2.27,1.5-3.63,1.49h0Zm34.59-3.46c0-.96-.77-1.73-1.73-1.73h-17.3c-.96,0-1.73.77-1.73,1.73s.77,1.73,1.73,1.73h17.3c.96,0,1.73-.77,1.73-1.73Zm-30.96,15.81l6.21-5.9c.71-.64.78-1.73.14-2.44-.64-.71-1.73-.78-2.44-.14-.03.03-.06.05-.08.08l-6.23,5.93c-.68.65-1.76.65-2.45,0l-2.75-2.74c-.69-.66-1.78-.64-2.45.04-.65.67-.65,1.73,0,2.4l2.74,2.74c2.01,2.02,5.28,2.03,7.31.03h0Zm30.96-1.97c0-.96-.77-1.73-1.73-1.73h-17.3c-.96,0-1.73.77-1.73,1.73s.77,1.73,1.73,1.73h17.3c.96,0,1.73-.77,1.73-1.73Zm-30.96,15.81l6.2-5.9c.71-.64.78-1.73.14-2.44s-1.73-.78-2.44-.14c-.03.03-.06.05-.08.08l-6.23,5.93c-.67.68-1.77.68-2.45,0-.02-.02-.05-.05-.07-.08l-2.74-2.45c-.71-.64-1.81-.57-2.44.14-.64.71-.57,1.81.14,2.44l2.67,2.38c2.01,2.02,5.28,2.03,7.31.03h0Zm30.96-1.97c0-.96-.77-1.73-1.73-1.73h-17.3c-.96,0-1.73.77-1.73,1.73s.77,1.73,1.73,1.73h17.3c.96,0,1.73-.77,1.73-1.73Z"/>
</svg>