<?xml version="1.0" encoding="UTF-8"?>
<svg id="Calque_1" data-name="Calque 1" xmlns="http://www.w3.org/2000/svg" viewBox="0 0 48 48">
  <defs>
    <style>
      .cls-1 {
        fill: #f6f8fa;
        stroke-width: 0px;
      }
    </style>
  </defs>
  <path class="cls-1" d="m37.41,14.54c0-1.27-.49-2.33-1.25-3.33-1.08-1.42-2.6-1.8-4.22-2.04H15.81c-.94.33-1.96.34-2.83.95-1.49,1.04-2.05,2.54-2.34,4.22v16.12c.24.3.17.68.23,1.02.48,2.62,2.49,4.42,5.14,4.44,5.26.04,10.52.05,15.78,0,3.11-.03,5.56-2.49,5.59-5.6.06-5.26.02-10.52.02-15.78Zm-7.34,16.32c-3.14,1.48-7.35.42-9.7-2.51-.48-.59-.93-.89-1.72-.98-1.96-.21-3.16-2.12-2.59-3.99.18-.59.23-1.1.04-1.71-.61-1.92.46-3.73,2.45-4.07.86-.15,1.42-.51,1.98-1.16,1.66-1.94,3.81-2.94,6.37-3.02.88-.08,1.73.13,2.54.41,1.19.42,1.93,1.28,2.16,2.52.23,1.26-.19,2.43-1.27,3.03-1.38.76-1.02,2.17-1.15,3.17-.11.82.07,2.1,1.39,2.83,2.23,1.23,1.86,4.37-.49,5.48Z"/>
  <path class="cls-1" d="m27.04,29.32c-2.37-.1-4.14-1.07-5.35-2.91-.52-.8-1.02-1.31-2.04-1.18-.68.09-1.41.01-1.48-.88-.07-.86.56-1.09,1.3-1.1.57,0,1.06-.16,1.01-.83-.04-.63-.54-.79-1.1-.76-.72.04-1.23-.24-1.21-1.01.02-.83.66-.97,1.3-.88,1.14.16,1.71-.44,2.29-1.31,1.5-2.26,4.31-3.32,6.59-2.65.65.19,1.18.49,1.04,1.24-.14.78-.75.84-1.42.68-1.43-.34-2.7.05-3.83.94-.23.18-.52.38-.43.74.1.38.45.34.75.35.56.01,1.11.01,1.67,0,.67-.01,1.1.29,1.08.97-.03.66-.46.96-1.13.94-.76-.02-1.52,0-2.28,0-.6,0-1.21.09-1.25.79-.05.78.63.78,1.19.8.71.01,1.42,0,2.13,0,.71.01,1.4.16,1.35,1.04-.04.73-.61.98-1.3.95-.25-.01-.51-.03-.76,0-.47.06-1.19-.26-1.37.26-.25.74.59.99,1.06,1.26.94.52,1.95.83,3.05.45.68-.23,1.52-.48,1.81.43.32,1.01-.56,1.27-1.31,1.47-.48.13-.99.15-1.36.2Z"/>
</svg>