<?xml version="1.0" encoding="UTF-8"?>
<svg id="Calque_1" data-name="Calque 1" xmlns="http://www.w3.org/2000/svg" viewBox="0 0 48 48">
  <defs>
    <style>
      .cls-1 {
        fill: #f6f8fa;
        stroke-width: 0px;
      }
    </style>
  </defs>
  <path class="cls-1" d="m31.67,35.48c.37-4.06-1.18-7.34-4.38-10.01,4.25-.6,9.27,3.61,9.39,7.67.36.54-.09,1.21.29,1.75.12.5-.08.61-.59.6-1.57-.04-3.14-.02-4.71-.02Z"/>
  <path class="cls-1" d="m28.73,35.2c-5.69,0-11.39,0-17.08,0-.86-.46-.64-1.26-.54-1.93,1.08-6.7,8.14-10.04,13.99-6.51,2.72,1.64,4.26,4.18,4.4,7.41.02.53-.16.95-.77,1.04Z"/>
  <path class="cls-1" d="m25.78,18.28c-.04,2.83-2.73,5.38-5.69,5.24-3.06-.14-5.24-2.16-5.37-5.56-.1-2.85,2.86-5.66,5.69-5.45,3.55.26,5.43,3.04,5.37,5.77Z"/>
  <path class="cls-1" d="m26.18,12.88c2.08-.75,3.74-.13,5.16,1.2,1.58,1.47,2.24,3.33,1.59,5.41-.81,2.62-3.46,4.36-5.88,4.05-.39-.05-1.13-.04-.66-.7,2.4-3.36,2.19-6.65-.22-9.96Z"/>
</svg>